<svg width="318" height="179" viewBox="0 0 318 179" fill="none" xmlns="http://www.w3.org/2000/svg">
<g filter="url(#filter0_d)">
<rect x="1.01309" width="308.993" height="171" fill="#212121"/>
<path d="M1.01309 1L310.006 171M1.01309 171L310.006 1" stroke="#595959"/>
<rect x="1.01309" y="129" width="308.993" height="42" fill="black" fill-opacity="0.39"/>
<path d="M113.287 155.484C112.386 155.88 111.259 156.078 109.904 156.078C105.962 156.078 103.99 154.138 103.99 150.258C103.99 146.586 105.996 144.75 110.006 144.75C111.23 144.75 112.324 144.932 113.287 145.297V147.172C112.324 146.755 111.282 146.547 110.162 146.547C107.48 146.547 106.139 147.784 106.139 150.258C106.139 152.94 107.404 154.281 109.936 154.281C110.311 154.281 110.738 154.219 111.217 154.094V150.844H113.287V155.484ZM114.565 156V147.797H116.167L116.424 148.844C117.143 148.146 117.904 147.797 118.706 147.797V149.469C117.935 149.469 117.245 149.789 116.635 150.43V156H114.565ZM119.007 153.445C119.007 151.815 120.194 151 122.569 151C123.127 151 123.684 151.052 124.241 151.156V150.539C124.241 149.805 123.713 149.438 122.655 149.438C121.76 149.438 120.765 149.568 119.671 149.828V148.188C120.765 147.927 121.76 147.797 122.655 147.797C125.093 147.797 126.312 148.698 126.312 150.5V156H125.109L124.374 155.266C123.661 155.755 122.874 156 122.015 156C120.01 156 119.007 155.148 119.007 153.445ZM124.241 152.562C123.721 152.458 123.163 152.406 122.569 152.406C121.575 152.406 121.077 152.745 121.077 153.422C121.077 154.151 121.494 154.516 122.327 154.516C123.015 154.516 123.653 154.302 124.241 153.875V152.562ZM129.863 153.859C130.379 154.141 130.933 154.281 131.527 154.281C132.761 154.281 133.379 153.414 133.379 151.68C133.379 150.206 132.696 149.469 131.332 149.469C130.743 149.469 130.254 149.505 129.863 149.578V153.859ZM127.793 148.133C128.881 147.909 130.032 147.797 131.246 147.797C134.032 147.797 135.425 149.096 135.425 151.695C135.425 154.565 134.129 156 131.535 156C130.983 156 130.425 155.87 129.863 155.609V158.969H127.793V148.133ZM136.516 156V144.828H138.586V148.844C139.232 148.146 140.057 147.797 141.063 147.797C143.005 147.797 143.977 148.807 143.977 150.828V156H141.906V150.828C141.906 149.922 141.456 149.469 140.555 149.469C139.883 149.469 139.227 149.737 138.586 150.273V156H136.516ZM147.528 144.828V146.469H145.458V144.828H147.528ZM147.528 147.797V156H145.458V147.797H147.528ZM155.064 155.766C154.386 155.922 153.683 156 152.954 156C150.037 156 148.579 154.581 148.579 151.742C148.579 149.112 150.037 147.797 152.954 147.797C153.683 147.797 154.386 147.875 155.064 148.031V149.672C154.386 149.516 153.735 149.438 153.11 149.438C151.47 149.438 150.649 150.206 150.649 151.742C150.649 153.487 151.47 154.359 153.11 154.359C153.735 154.359 154.386 154.281 155.064 154.125V155.766ZM163.557 154.203C165.874 154.203 167.033 152.839 167.033 150.109C167.033 147.786 165.874 146.625 163.557 146.625H161.252V154.203H163.557ZM159.182 156V144.828H163.557C167.255 144.828 169.104 146.589 169.104 150.109C169.104 154.036 167.255 156 163.557 156H159.182ZM173.655 147.797C176.144 147.797 177.389 149.068 177.389 151.609C177.389 151.948 177.366 152.286 177.319 152.625H171.874C171.874 153.781 172.722 154.359 174.42 154.359C175.249 154.359 176.077 154.281 176.905 154.125V155.766C176.181 155.922 175.301 156 174.264 156C171.29 156 169.803 154.602 169.803 151.805C169.803 149.133 171.087 147.797 173.655 147.797ZM171.874 151.188H175.374V151.125C175.374 149.99 174.801 149.422 173.655 149.422C172.561 149.422 171.967 150.01 171.874 151.188ZM178.464 155.609V153.891C179.375 154.255 180.427 154.438 181.62 154.438C182.511 154.438 182.956 154.151 182.956 153.578C182.956 153.031 182.657 152.758 182.058 152.758H180.573C178.907 152.758 178.073 151.938 178.073 150.297C178.073 148.578 179.289 147.719 181.722 147.719C182.753 147.719 183.724 147.875 184.636 148.188V149.906C183.724 149.542 182.735 149.359 181.667 149.359C180.547 149.359 179.987 149.646 179.987 150.219C179.987 150.766 180.313 151.039 180.964 151.039H182.292C184.115 151.039 185.026 151.859 185.026 153.5C185.026 155.219 183.865 156.078 181.542 156.078C180.401 156.078 179.375 155.922 178.464 155.609ZM188.07 144.828V146.469H185.999V144.828H188.07ZM188.07 147.797V156H185.999V147.797H188.07ZM194.801 149.656C194.462 149.531 193.98 149.469 193.355 149.469C191.923 149.469 191.207 150.258 191.207 151.836C191.207 153.362 191.824 154.125 193.059 154.125C193.652 154.125 194.233 153.984 194.801 153.703V149.656ZM196.871 155.375C196.871 157.771 195.431 158.969 192.551 158.969C191.54 158.969 190.644 158.839 189.863 158.578V156.938C190.66 157.198 191.561 157.328 192.566 157.328C194.056 157.328 194.801 156.703 194.801 155.453C194.186 155.714 193.525 155.844 192.816 155.844C190.379 155.844 189.16 154.513 189.16 151.852C189.16 149.148 190.579 147.797 193.418 147.797C194.371 147.797 195.522 147.909 196.871 148.133V155.375ZM198.352 156V147.797H199.954L200.211 149C200.998 148.198 201.894 147.797 202.899 147.797C204.842 147.797 205.813 148.807 205.813 150.828V156H203.743V150.828C203.743 149.922 203.292 149.469 202.391 149.469C201.719 149.469 201.063 149.737 200.422 150.273V156H198.352Z" fill="#C2C2C2"/>
</g>
<defs>
<filter id="filter0_d" x="0" y="0" width="318" height="179" filterUnits="userSpaceOnUse" color-interpolation-filters="sRGB">
<feFlood flood-opacity="0" result="BackgroundImageFix"/>
<feColorMatrix in="SourceAlpha" type="matrix" values="0 0 0 0 0 0 0 0 0 0 0 0 0 0 0 0 0 0 127 0"/>
<feOffset dx="4" dy="4"/>
<feGaussianBlur stdDeviation="1.5"/>
<feColorMatrix type="matrix" values="0 0 0 0 0 0 0 0 0 0 0 0 0 0 0 0 0 0 0.25 0"/>
<feBlend mode="normal" in2="BackgroundImageFix" result="effect1_dropShadow"/>
<feBlend mode="normal" in="SourceGraphic" in2="effect1_dropShadow" result="shape"/>
</filter>
</defs>
</svg>
