<svg 
 xmlns="http://www.w3.org/2000/svg"
 xmlns:xlink="http://www.w3.org/1999/xlink"
 width="139px" height="104px">
<path fill-rule="evenodd"  fill="rgb(255, 249, 95)"
 d="M137.406,77.027 C137.135,77.817 136.821,78.643 136.465,79.508 C136.109,80.373 135.691,81.237 135.211,82.102 C134.731,82.967 134.189,83.739 133.585,84.418 C132.981,85.098 132.296,85.652 131.530,86.080 C130.763,86.509 129.908,86.723 128.963,86.723 C128.174,86.723 127.415,86.572 126.687,86.269 C125.959,85.967 125.320,85.510 124.771,84.897 C124.221,84.284 123.784,83.516 123.459,82.593 C123.137,81.680 122.977,80.609 122.974,79.385 C122.935,79.489 122.903,79.593 122.864,79.697 C122.562,80.503 122.245,81.275 121.912,82.014 C121.579,82.752 121.207,83.407 120.797,83.978 C120.387,84.549 119.942,85.002 119.462,85.338 C118.982,85.674 118.447,85.841 117.859,85.841 C117.302,85.841 116.814,85.724 116.396,85.489 C115.978,85.254 115.625,84.935 115.339,84.532 C115.052,84.129 114.836,83.646 114.689,83.084 C114.541,82.522 114.468,81.913 114.468,81.258 C113.988,82.198 113.523,82.979 113.074,83.600 C112.625,84.221 112.180,84.717 111.739,85.086 C111.298,85.455 110.852,85.715 110.403,85.866 C109.954,86.018 109.490,86.093 109.010,86.093 C108.623,86.093 108.181,86.026 107.686,85.892 C107.190,85.757 106.722,85.476 106.281,85.048 C105.839,84.620 105.468,84.003 105.166,83.197 C104.864,82.391 104.713,81.308 104.713,79.949 C104.713,79.572 104.751,79.217 104.774,78.853 C104.714,79.000 104.652,79.155 104.593,79.294 C104.106,80.452 103.606,81.451 103.095,82.291 C102.584,83.130 102.030,83.856 101.435,84.469 C100.838,85.082 100.122,85.674 99.286,86.244 C100.385,88.997 101.264,91.440 101.922,93.572 C102.580,95.704 102.909,97.559 102.909,99.138 C102.909,100.413 102.604,101.412 101.992,102.134 C101.380,102.856 100.525,103.217 99.426,103.217 C98.682,103.217 98.059,103.003 97.556,102.575 C97.052,102.147 96.642,101.551 96.325,100.787 C96.007,100.023 95.779,99.116 95.640,98.067 C95.500,97.018 95.431,95.864 95.431,94.605 C95.431,93.144 95.527,91.511 95.721,89.707 C95.914,87.902 96.166,86.026 96.476,84.079 C95.903,84.884 95.260,85.510 94.548,85.955 C93.836,86.400 93.085,86.622 92.295,86.622 C91.567,86.622 90.867,86.488 90.193,86.219 C89.519,85.951 88.919,85.535 88.393,84.972 C87.866,84.410 87.448,83.701 87.139,82.845 C86.829,81.988 86.674,80.973 86.674,79.798 C86.674,79.432 86.693,79.083 86.715,78.737 C86.704,78.764 86.697,78.788 86.686,78.815 C86.399,79.521 86.078,80.209 85.722,80.880 C85.366,81.552 84.963,82.152 84.514,82.681 C84.065,83.210 83.566,83.638 83.016,83.965 C82.466,84.293 81.858,84.456 81.193,84.456 C80.217,84.456 79.408,84.028 78.766,83.172 C78.123,82.316 77.802,81.023 77.802,79.294 C77.802,78.975 77.822,78.626 77.856,78.259 C77.722,78.625 77.605,78.985 77.457,79.357 C77.147,80.137 76.807,80.893 76.435,81.623 C76.063,82.354 75.653,83.008 75.204,83.587 C74.755,84.167 74.259,84.629 73.718,84.972 C73.175,85.317 72.587,85.489 71.952,85.489 C71.271,85.489 70.632,85.321 70.036,84.985 C69.440,84.649 68.921,84.049 68.480,83.185 C68.039,82.320 67.690,81.145 67.435,79.659 C67.327,79.033 67.248,78.319 67.185,77.549 C66.947,78.265 66.700,78.981 66.432,79.697 C66.130,80.503 65.812,81.275 65.480,82.014 C65.147,82.752 64.775,83.407 64.365,83.978 C63.954,84.549 63.509,85.002 63.029,85.338 C62.549,85.674 62.015,85.841 61.427,85.841 C60.869,85.841 60.381,85.724 59.963,85.489 C59.545,85.254 59.193,84.935 58.907,84.532 C58.620,84.129 58.403,83.646 58.256,83.084 C58.109,82.522 58.036,81.913 58.036,81.258 C57.555,82.198 57.091,82.979 56.642,83.600 C56.193,84.221 55.748,84.717 55.307,85.086 C54.865,85.455 54.420,85.715 53.971,85.866 C53.522,86.018 53.057,86.093 52.577,86.093 C52.190,86.093 51.749,86.026 51.254,85.892 C50.758,85.757 50.290,85.476 49.848,85.048 C49.407,84.620 49.035,84.003 48.733,83.197 C48.432,82.391 48.281,81.308 48.281,79.949 C48.281,79.425 48.322,78.923 48.366,78.423 C48.149,78.686 47.927,78.929 47.696,79.143 C47.209,79.596 46.698,79.945 46.163,80.188 C45.629,80.431 45.075,80.595 44.503,80.679 C44.286,81.502 43.999,82.274 43.643,82.996 C43.287,83.718 42.854,84.347 42.343,84.884 C41.832,85.422 41.239,85.846 40.566,86.156 C39.892,86.467 39.137,86.622 38.301,86.622 C37.605,86.622 36.904,86.467 36.199,86.156 C35.495,85.846 34.860,85.367 34.295,84.721 C33.729,84.075 33.273,83.260 32.924,82.278 C32.576,81.296 32.402,80.125 32.402,78.765 C32.402,77.875 32.498,77.002 32.692,76.146 C32.886,75.290 33.157,74.480 33.505,73.716 C33.853,72.952 34.268,72.239 34.748,71.575 C35.227,70.912 35.746,70.338 36.304,69.851 L36.652,70.480 C36.296,70.833 35.955,71.269 35.630,71.790 C35.305,72.310 35.011,72.885 34.748,73.515 C34.484,74.144 34.275,74.807 34.121,75.504 C33.966,76.201 33.888,76.893 33.888,77.581 C33.888,78.941 34.047,80.083 34.364,81.006 C34.682,81.930 35.088,82.673 35.584,83.235 C36.079,83.798 36.637,84.200 37.256,84.444 C37.875,84.687 38.479,84.809 39.068,84.809 C39.935,84.809 40.767,84.465 41.565,83.776 C42.362,83.088 42.985,82.089 43.434,80.780 L43.249,80.780 C42.288,80.780 41.402,80.603 40.589,80.251 C39.776,79.898 39.071,79.407 38.476,78.778 C37.879,78.148 37.411,77.393 37.070,76.511 C36.730,75.630 36.559,74.660 36.559,73.603 C36.559,73.015 36.633,72.419 36.780,71.815 C36.927,71.210 37.155,70.669 37.465,70.190 C37.775,69.712 38.177,69.322 38.673,69.019 C39.168,68.717 39.757,68.566 40.438,68.566 C40.996,68.566 41.545,68.688 42.087,68.931 C42.629,69.175 43.117,69.590 43.550,70.178 C43.984,70.766 44.336,71.559 44.607,72.558 C44.878,73.557 45.014,74.820 45.014,76.348 C45.014,76.918 44.991,77.485 44.944,78.047 C44.898,78.610 44.812,79.160 44.689,79.697 C45.292,79.580 45.830,79.369 46.303,79.067 C46.775,78.765 47.193,78.400 47.557,77.972 C47.921,77.544 48.242,77.057 48.521,76.511 C48.609,76.339 48.680,76.138 48.763,75.958 C49.047,74.824 49.357,73.814 49.697,72.948 C50.115,71.907 50.595,70.942 51.137,70.052 L51.997,70.354 C51.981,70.371 51.931,70.522 51.846,70.807 C51.761,71.093 51.652,71.479 51.521,71.966 C51.389,72.453 51.250,73.015 51.103,73.653 C50.955,74.291 50.816,74.967 50.684,75.680 C50.553,76.394 50.444,77.120 50.359,77.858 C50.274,78.597 50.232,79.311 50.232,79.999 C50.232,81.577 50.491,82.824 51.010,83.739 C51.528,84.654 52.206,85.111 53.042,85.111 C53.971,85.111 54.869,84.528 55.736,83.361 C56.603,82.194 57.432,80.562 58.221,78.463 C58.361,77.489 58.550,76.583 58.790,75.743 C59.030,74.904 59.270,74.157 59.511,73.502 C59.750,72.847 59.971,72.302 60.172,71.865 C60.374,71.429 60.521,71.135 60.614,70.984 L61.427,71.185 C61.179,72.444 60.966,73.574 60.788,74.572 C60.610,75.571 60.466,76.473 60.358,77.279 C60.250,78.085 60.168,78.803 60.114,79.432 C60.060,80.062 60.033,80.629 60.033,81.132 C60.033,82.139 60.180,82.945 60.474,83.550 C60.768,84.154 61.225,84.456 61.845,84.456 C62.263,84.456 62.665,84.289 63.053,83.953 C63.439,83.617 63.842,83.063 64.260,82.291 C64.678,81.519 65.120,80.520 65.584,79.294 C66.023,78.137 66.518,76.717 67.067,75.051 C67.060,74.699 67.052,74.354 67.052,73.980 C67.052,72.134 67.145,70.413 67.330,68.818 C65.998,68.634 64.880,68.344 63.974,67.949 C63.068,67.555 62.368,67.173 61.872,66.803 L62.244,65.872 C62.476,66.023 62.755,66.199 63.080,66.401 C63.405,66.602 63.785,66.795 64.218,66.980 C64.652,67.165 65.135,67.337 65.670,67.496 C66.204,67.656 66.788,67.769 67.423,67.836 C67.640,66.325 67.919,64.961 68.259,63.744 C68.600,62.527 68.975,61.486 69.386,60.621 C69.796,59.757 70.222,59.094 70.663,58.632 C71.105,58.170 71.534,57.939 71.952,57.939 C72.432,57.939 72.773,58.141 72.974,58.544 C73.175,58.947 73.276,59.484 73.276,60.155 C73.276,60.642 73.230,61.180 73.137,61.767 C73.044,62.355 72.920,62.980 72.765,63.643 C72.610,64.306 72.425,64.995 72.208,65.708 C71.991,66.422 71.767,67.131 71.534,67.836 C73.083,67.685 74.511,67.408 75.820,67.005 C77.128,66.602 78.262,66.191 79.222,65.771 L79.664,66.703 C78.394,67.223 77.077,67.689 75.715,68.100 C74.352,68.512 72.827,68.768 71.140,68.868 C70.752,69.960 70.353,70.996 69.943,71.978 C69.533,72.961 69.157,73.813 68.817,74.534 C68.832,75.475 68.883,76.495 68.968,77.594 C69.053,78.694 69.223,79.722 69.479,80.679 C69.734,81.636 70.098,82.433 70.570,83.071 C71.043,83.709 71.666,84.028 72.440,84.028 C73.091,84.028 73.686,83.730 74.229,83.134 C74.770,82.538 75.270,81.783 75.727,80.868 C76.183,79.953 76.605,78.950 76.993,77.858 C77.379,76.767 77.743,75.735 78.084,74.761 L78.457,74.865 C78.885,73.108 79.617,71.127 80.659,68.919 L81.518,69.171 C81.425,69.607 81.274,70.203 81.065,70.959 C80.856,71.714 80.647,72.558 80.438,73.489 C80.229,74.421 80.047,75.395 79.892,76.410 C79.737,77.426 79.660,78.404 79.660,79.344 C79.660,80.134 79.714,80.776 79.822,81.271 C79.931,81.766 80.074,82.152 80.252,82.429 C80.430,82.706 80.639,82.895 80.879,82.996 C81.119,83.096 81.379,83.147 81.657,83.147 C82.106,83.147 82.532,82.996 82.935,82.693 C83.337,82.391 83.721,81.993 84.085,81.497 C84.448,81.002 84.789,80.448 85.106,79.835 C85.424,79.223 85.710,78.606 85.966,77.984 C86.221,77.363 86.450,76.772 86.651,76.209 C86.852,75.647 87.015,75.164 87.139,74.761 L87.575,74.882 C88.102,73.638 88.752,72.598 89.531,71.777 C90.352,70.912 91.242,70.270 92.202,69.851 C93.162,69.431 94.068,69.221 94.920,69.221 C95.492,69.221 96.000,69.293 96.441,69.435 C96.882,69.578 97.273,69.762 97.614,69.989 C97.954,70.216 98.245,70.467 98.485,70.744 C98.725,71.021 98.930,71.295 99.100,71.563 C99.147,71.378 99.193,71.206 99.240,71.047 C99.286,70.887 99.333,70.715 99.379,70.530 L100.285,70.682 C100.207,71.135 100.114,71.718 100.006,72.432 C99.898,73.145 99.782,73.939 99.658,74.811 C99.534,75.685 99.402,76.608 99.263,77.581 C99.124,78.555 98.992,79.525 98.868,80.490 C98.744,81.456 98.628,82.383 98.520,83.273 C98.411,84.163 98.318,84.969 98.241,85.690 C99.031,85.254 99.723,84.767 100.320,84.230 C100.916,83.693 101.481,83.017 102.015,82.202 C102.549,81.388 103.076,80.385 103.595,79.193 C104.113,78.001 104.690,76.524 105.325,74.761 L105.510,74.813 C105.706,74.142 105.910,73.507 106.130,72.948 C106.548,71.907 107.028,70.942 107.570,70.052 L108.429,70.354 C108.414,70.371 108.363,70.522 108.278,70.807 C108.193,71.093 108.084,71.479 107.953,71.966 C107.821,72.453 107.682,73.015 107.535,73.653 C107.388,74.291 107.248,74.967 107.117,75.680 C106.985,76.394 106.877,77.120 106.792,77.858 C106.706,78.597 106.664,79.311 106.664,79.999 C106.664,81.577 106.923,82.824 107.442,83.739 C107.961,84.654 108.638,85.111 109.474,85.111 C110.403,85.111 111.301,84.528 112.169,83.361 C113.036,82.194 113.864,80.562 114.654,78.463 C114.793,77.489 114.983,76.583 115.223,75.743 C115.463,74.904 115.703,74.157 115.943,73.502 C116.183,72.847 116.403,72.302 116.605,71.865 C116.806,71.429 116.953,71.135 117.046,70.984 L117.859,71.185 C117.611,72.444 117.398,73.574 117.220,74.572 C117.042,75.571 116.899,76.473 116.791,77.279 C116.682,78.085 116.601,78.803 116.547,79.432 C116.492,80.062 116.466,80.629 116.466,81.132 C116.466,82.139 116.613,82.945 116.907,83.550 C117.201,84.154 117.658,84.456 118.277,84.456 C118.695,84.456 119.098,84.289 119.485,83.953 C119.872,83.617 120.275,83.063 120.693,82.291 C121.111,81.519 121.552,80.520 122.017,79.294 C122.481,78.069 123.007,76.558 123.596,74.761 L123.762,74.807 C124.134,73.841 124.583,73.002 125.119,72.306 C125.746,71.492 126.447,70.870 127.221,70.442 C127.995,70.014 128.754,69.800 129.497,69.800 C130.457,69.800 131.220,70.144 131.785,70.833 C132.350,71.521 132.633,72.411 132.633,73.502 C132.633,74.442 132.470,75.294 132.145,76.058 C131.820,76.822 131.390,77.477 130.856,78.022 C130.322,78.568 129.710,78.992 129.021,79.294 C128.332,79.596 127.616,79.747 126.873,79.747 C126.516,79.747 126.180,79.726 125.863,79.684 C125.545,79.642 125.262,79.596 125.015,79.546 C125.108,80.587 125.293,81.485 125.572,82.240 C125.851,82.996 126.199,83.617 126.617,84.104 C127.035,84.591 127.504,84.952 128.023,85.187 C128.541,85.422 129.079,85.539 129.637,85.539 C130.334,85.539 130.976,85.355 131.565,84.985 C132.153,84.616 132.695,84.133 133.190,83.537 C133.686,82.941 134.139,82.257 134.549,81.485 C134.959,80.713 135.327,79.928 135.652,79.130 C135.978,78.333 136.268,77.552 136.523,76.788 C136.779,76.024 137.007,75.349 137.209,74.761 L138.114,75.013 C137.913,75.567 137.677,76.239 137.406,77.027 ZM43.748,73.061 C43.539,72.197 43.272,71.504 42.947,70.984 C42.621,70.464 42.238,70.094 41.797,69.876 C41.356,69.658 40.887,69.548 40.392,69.548 C39.974,69.548 39.586,69.645 39.230,69.838 C38.874,70.031 38.564,70.296 38.301,70.631 C38.038,70.967 37.829,71.370 37.674,71.840 C37.519,72.310 37.442,72.831 37.442,73.401 C37.442,74.392 37.597,75.282 37.906,76.071 C38.216,76.860 38.638,77.531 39.172,78.085 C39.707,78.639 40.330,79.063 41.042,79.357 C41.754,79.651 42.521,79.798 43.341,79.798 L43.783,79.798 C43.906,79.277 43.992,78.732 44.038,78.161 C44.085,77.590 44.108,76.969 44.108,76.297 C44.077,75.005 43.957,73.926 43.748,73.061 ZM71.314,65.494 C71.523,64.705 71.705,63.970 71.860,63.291 C72.014,62.611 72.130,61.998 72.208,61.452 C72.285,60.907 72.324,60.458 72.324,60.105 C72.324,59.551 72.246,59.274 72.092,59.274 C71.952,59.274 71.743,59.425 71.465,59.727 C71.186,60.029 70.892,60.520 70.582,61.200 C70.272,61.880 69.974,62.770 69.688,63.870 C69.401,64.969 69.173,66.325 69.003,67.937 L69.444,67.937 L70.582,67.937 C70.861,67.097 71.105,66.283 71.314,65.494 ZM69.560,70.744 C69.792,70.149 70.017,69.540 70.234,68.919 L69.374,68.919 L68.910,68.919 C68.879,69.456 68.855,70.023 68.840,70.619 C68.824,71.215 68.817,71.832 68.817,72.469 L68.817,72.520 C69.080,71.932 69.328,71.341 69.560,70.744 ZM98.775,72.948 C98.667,72.696 98.516,72.407 98.322,72.079 C98.128,71.752 97.889,71.446 97.602,71.160 C97.316,70.875 96.975,70.635 96.580,70.442 C96.185,70.249 95.725,70.153 95.198,70.153 C94.486,70.153 93.840,70.308 93.259,70.619 C92.678,70.929 92.152,71.341 91.680,71.853 C91.207,72.365 90.793,72.952 90.437,73.615 C90.081,74.279 89.783,74.971 89.543,75.693 C89.302,76.415 89.125,77.141 89.008,77.871 C88.892,78.601 88.834,79.277 88.834,79.898 C88.834,80.704 88.923,81.456 89.101,82.152 C89.279,82.849 89.527,83.453 89.845,83.965 C90.162,84.477 90.549,84.884 91.006,85.187 C91.462,85.489 91.970,85.640 92.527,85.640 C93.348,85.640 94.126,85.321 94.862,84.683 C95.597,84.045 96.267,83.155 96.871,82.014 C97.149,80.436 97.447,78.878 97.765,77.342 C98.082,75.806 98.419,74.342 98.775,72.948 ZM98.195,85.992 C98.163,86.093 98.148,86.194 98.148,86.295 C98.148,86.395 98.148,86.488 98.148,86.572 C98.009,87.680 97.893,88.745 97.800,89.770 C97.707,90.794 97.629,91.730 97.567,92.578 C97.505,93.425 97.459,94.168 97.428,94.806 C97.397,95.444 97.382,95.931 97.382,96.267 C97.382,98.130 97.598,99.574 98.032,100.598 C98.465,101.622 99.092,102.134 99.913,102.134 C100.579,102.134 101.094,101.857 101.458,101.303 C101.821,100.749 102.004,99.994 102.004,99.037 C102.004,97.693 101.659,95.914 100.970,93.698 C100.281,91.482 99.356,88.913 98.195,85.992 ZM125.770,78.677 C126.133,78.736 126.579,78.765 127.105,78.765 C127.663,78.765 128.216,78.635 128.766,78.375 C129.315,78.115 129.811,77.754 130.252,77.292 C130.694,76.830 131.050,76.281 131.321,75.642 C131.591,75.005 131.727,74.308 131.727,73.552 C131.727,73.183 131.681,72.831 131.588,72.495 C131.495,72.159 131.356,71.865 131.170,71.613 C130.984,71.361 130.755,71.160 130.485,71.009 C130.213,70.858 129.900,70.782 129.544,70.782 C128.971,70.782 128.409,70.980 127.860,71.374 C127.310,71.769 126.818,72.310 126.385,72.998 C125.951,73.687 125.599,74.501 125.328,75.441 C125.057,76.381 124.922,77.389 124.922,78.463 C125.123,78.547 125.406,78.618 125.770,78.677 ZM82.470,58.921 C82.857,58.921 83.206,58.984 83.515,59.110 C83.825,59.236 84.088,59.400 84.305,59.601 C84.522,59.803 84.684,60.025 84.793,60.269 C84.901,60.512 84.956,60.751 84.956,60.986 C84.956,61.574 84.746,62.027 84.328,62.346 C83.910,62.665 83.384,62.825 82.749,62.825 C82.424,62.825 82.118,62.770 81.832,62.661 C81.545,62.552 81.297,62.409 81.088,62.233 C80.879,62.057 80.717,61.847 80.601,61.603 C80.484,61.360 80.426,61.104 80.426,60.835 C80.426,60.265 80.631,59.803 81.042,59.450 C81.452,59.098 81.928,58.921 82.470,58.921 ZM82.412,61.351 C82.559,61.477 82.757,61.540 83.005,61.540 C83.237,61.540 83.411,61.486 83.527,61.377 C83.643,61.268 83.701,61.137 83.701,60.986 C83.701,60.819 83.635,60.663 83.504,60.520 C83.372,60.378 83.175,60.306 82.912,60.306 C82.431,60.306 82.192,60.500 82.192,60.886 C82.192,61.071 82.265,61.226 82.412,61.351 ZM127.535,30.303 C126.962,31.377 126.339,32.267 125.665,32.972 C124.992,33.677 124.268,34.030 123.494,34.030 C122.719,34.030 122.069,33.770 121.543,33.249 C121.016,32.729 120.582,32.045 120.242,31.197 C119.901,30.349 119.638,29.384 119.452,28.301 C119.308,27.462 119.216,26.599 119.128,25.734 C118.740,26.316 118.332,26.824 117.894,27.231 C117.407,27.684 116.896,28.032 116.362,28.276 C115.827,28.519 115.274,28.683 114.701,28.767 C114.484,29.589 114.197,30.362 113.841,31.083 C113.485,31.805 113.052,32.435 112.541,32.972 C112.030,33.510 111.438,33.933 110.764,34.244 C110.090,34.555 109.336,34.710 108.499,34.710 C107.803,34.710 107.102,34.555 106.397,34.244 C105.693,33.933 105.058,33.455 104.493,32.808 C103.927,32.162 103.471,31.348 103.123,30.366 C102.835,29.555 102.673,28.608 102.623,27.539 C102.052,28.866 101.414,30.061 100.700,31.109 C99.957,32.200 99.117,33.081 98.180,33.753 C97.243,34.424 96.171,34.760 94.963,34.760 C94.638,34.760 94.309,34.731 93.976,34.672 C93.643,34.613 93.318,34.521 93.001,34.395 C92.683,34.269 92.385,34.097 92.106,33.879 C91.828,33.661 91.587,33.400 91.386,33.098 L92.153,32.544 C92.292,32.779 92.509,32.997 92.803,33.199 C93.097,33.400 93.484,33.501 93.964,33.501 C94.429,33.501 94.835,33.396 95.184,33.186 C95.532,32.976 95.826,32.691 96.066,32.330 C96.306,31.969 96.485,31.545 96.601,31.058 C96.717,30.572 96.775,30.051 96.775,29.497 C96.775,28.355 96.624,27.373 96.322,26.551 C96.020,25.728 95.664,24.994 95.254,24.347 C94.843,23.701 94.425,23.109 93.999,22.572 C93.573,22.035 93.244,21.489 93.012,20.935 C92.842,21.422 92.675,21.901 92.513,22.370 C92.432,22.604 92.336,22.838 92.247,23.072 L92.350,23.101 C91.824,24.561 91.266,25.988 90.678,27.382 C90.089,28.775 89.424,30.018 88.681,31.109 C87.937,32.200 87.097,33.081 86.161,33.753 C85.223,34.424 84.151,34.760 82.944,34.760 C82.619,34.760 82.289,34.731 81.957,34.672 C81.623,34.613 81.298,34.521 80.981,34.395 C80.663,34.269 80.366,34.097 80.087,33.879 C79.808,33.661 79.568,33.400 79.367,33.098 L80.133,32.544 C80.273,32.779 80.489,32.997 80.784,33.199 C81.078,33.400 81.465,33.501 81.945,33.501 C82.409,33.501 82.816,33.396 83.164,33.186 C83.513,32.976 83.807,32.691 84.047,32.330 C84.287,31.969 84.465,31.545 84.581,31.058 C84.697,30.572 84.755,30.051 84.755,29.497 C84.755,28.355 84.604,27.373 84.302,26.551 C84.000,25.728 83.644,24.994 83.234,24.347 C82.824,23.701 82.405,23.109 81.980,22.572 C81.554,22.035 81.225,21.489 80.993,20.935 C80.822,21.422 80.656,21.901 80.493,22.370 C80.331,22.841 80.153,23.311 79.959,23.781 C79.817,24.125 79.636,24.460 79.457,24.796 C79.052,25.927 78.671,26.931 78.320,27.785 C77.801,29.044 77.298,30.060 76.810,30.832 C76.322,31.604 75.838,32.158 75.358,32.494 C74.878,32.830 74.352,32.997 73.779,32.997 C73.082,32.997 72.486,32.733 71.991,32.204 C71.495,31.675 71.185,30.857 71.062,29.749 C70.566,30.907 69.923,31.851 69.134,32.582 C68.344,33.312 67.353,33.677 66.161,33.677 C65.526,33.677 64.918,33.551 64.338,33.299 C63.757,33.048 63.242,32.657 62.793,32.129 C62.344,31.600 61.984,30.932 61.713,30.127 C61.456,29.362 61.330,28.459 61.317,27.436 C61.191,27.755 61.066,28.066 60.943,28.351 C60.354,29.720 59.774,30.802 59.201,31.600 C58.628,32.397 58.040,32.951 57.436,33.262 C56.832,33.573 56.174,33.728 55.462,33.728 C55.012,33.728 54.548,33.619 54.068,33.400 C53.588,33.182 53.151,32.838 52.756,32.368 C52.361,31.898 52.039,31.289 51.792,30.542 C51.544,29.795 51.420,28.893 51.420,27.835 C51.420,27.315 51.463,26.773 51.548,26.211 C51.633,25.648 51.745,25.103 51.885,24.574 C52.024,24.045 52.179,23.533 52.349,23.038 C52.519,22.543 52.698,22.093 52.883,21.690 C52.326,21.976 51.722,22.119 51.072,22.119 C50.437,22.119 49.903,22.001 49.469,21.766 C49.314,22.354 49.159,22.857 49.005,23.277 C48.850,23.697 48.679,24.087 48.494,24.448 C48.411,24.609 48.310,24.754 48.219,24.909 C47.999,25.555 47.752,26.218 47.474,26.903 C47.187,27.608 46.866,28.297 46.510,28.968 C46.154,29.640 45.751,30.240 45.302,30.769 C44.853,31.297 44.354,31.726 43.804,32.053 C43.255,32.380 42.647,32.544 41.981,32.544 C41.006,32.544 40.196,32.116 39.554,31.260 C38.911,30.404 38.590,29.111 38.590,27.382 C38.590,26.240 38.803,24.784 39.229,23.013 C39.654,21.241 40.394,19.240 41.447,17.007 L42.306,17.258 C42.213,17.695 42.062,18.291 41.853,19.046 C41.644,19.802 41.435,20.645 41.226,21.577 C41.017,22.509 40.835,23.483 40.680,24.498 C40.525,25.514 40.448,26.492 40.448,27.432 C40.448,28.221 40.502,28.863 40.611,29.358 C40.719,29.854 40.862,30.240 41.040,30.517 C41.218,30.794 41.427,30.983 41.668,31.083 C41.907,31.184 42.167,31.235 42.446,31.235 C42.895,31.235 43.320,31.083 43.723,30.781 C44.126,30.479 44.509,30.080 44.873,29.585 C45.236,29.090 45.577,28.536 45.895,27.923 C46.212,27.310 46.499,26.693 46.754,26.072 C47.010,25.451 47.238,24.859 47.439,24.297 C47.640,23.735 47.803,23.252 47.927,22.849 L48.064,22.887 C48.256,22.236 48.448,21.586 48.610,20.935 C48.362,20.549 48.149,20.066 47.971,19.487 C47.793,18.908 47.704,18.215 47.704,17.409 C47.704,16.688 47.809,16.087 48.018,15.609 C48.227,15.130 48.501,14.891 48.842,14.891 C49.028,14.891 49.202,14.984 49.365,15.168 C49.527,15.353 49.663,15.596 49.771,15.899 C49.879,16.201 49.965,16.549 50.027,16.944 C50.088,17.338 50.120,17.754 50.120,18.190 C50.120,18.392 50.108,18.610 50.085,18.845 C50.061,19.080 50.034,19.319 50.003,19.563 C49.972,19.806 49.934,20.041 49.887,20.268 C49.841,20.494 49.794,20.683 49.748,20.834 C49.841,20.918 49.992,20.990 50.201,21.048 C50.410,21.107 50.685,21.136 51.025,21.136 C51.614,21.136 52.132,21.044 52.582,20.859 C53.030,20.675 53.386,20.440 53.650,20.154 C53.882,19.751 54.064,19.441 54.196,19.223 C54.327,19.005 54.432,18.841 54.509,18.732 C54.587,18.623 54.645,18.555 54.684,18.530 C54.722,18.505 54.772,18.492 54.834,18.492 C55.005,18.492 55.144,18.543 55.253,18.643 C55.361,18.744 55.415,18.887 55.415,19.071 C55.415,19.122 55.392,19.189 55.345,19.273 C55.299,19.357 55.237,19.466 55.160,19.600 C54.509,20.625 53.998,21.749 53.627,22.975 C53.255,24.200 53.069,25.560 53.069,27.054 C53.069,28.784 53.328,30.034 53.847,30.806 C54.366,31.579 55.105,31.965 56.065,31.965 C56.592,31.965 57.095,31.793 57.575,31.449 C58.055,31.105 58.527,30.567 58.992,29.837 C59.457,29.107 59.925,28.167 60.397,27.016 C60.869,25.867 61.376,24.477 61.919,22.849 L62.090,22.896 C62.271,22.401 62.470,21.924 62.700,21.476 C63.118,20.662 63.602,19.936 64.152,19.298 C64.701,18.660 65.270,18.123 65.859,17.686 C66.447,17.250 67.035,16.914 67.624,16.679 C68.212,16.444 68.754,16.327 69.250,16.327 C69.683,16.327 70.101,16.386 70.504,16.503 C70.907,16.621 71.267,16.809 71.584,17.069 C71.901,17.330 72.157,17.678 72.351,18.115 C72.544,18.551 72.641,19.097 72.641,19.751 C72.641,20.524 72.505,21.195 72.235,21.766 C71.963,22.337 71.638,22.815 71.259,23.201 C70.879,23.588 70.493,23.898 70.098,24.133 C69.703,24.368 69.389,24.536 69.157,24.637 L68.878,23.655 C68.925,23.655 69.099,23.588 69.401,23.453 C69.703,23.319 70.020,23.097 70.353,22.786 C70.686,22.475 70.992,22.077 71.271,21.590 C71.549,21.103 71.689,20.507 71.689,19.802 C71.689,18.996 71.480,18.379 71.062,17.951 C70.644,17.523 70.109,17.309 69.459,17.309 C68.963,17.309 68.383,17.502 67.717,17.888 C67.051,18.274 66.412,18.879 65.801,19.701 C65.189,20.524 64.670,21.565 64.245,22.824 C63.819,24.083 63.606,25.585 63.606,27.331 C63.606,29.061 63.888,30.378 64.454,31.285 C65.019,32.191 65.781,32.645 66.741,32.645 C67.221,32.645 67.682,32.498 68.123,32.204 C68.565,31.911 68.971,31.520 69.343,31.033 C69.714,30.546 70.047,29.980 70.342,29.333 C70.636,28.687 70.891,28.020 71.108,27.331 C71.108,26.794 71.166,26.160 71.282,25.430 C71.398,24.700 71.580,23.957 71.828,23.201 L73.245,23.705 C73.167,23.923 73.090,24.209 73.013,24.561 C72.935,24.914 72.862,25.300 72.792,25.720 C72.722,26.139 72.664,26.572 72.618,27.016 C72.571,27.462 72.548,27.894 72.548,28.313 C72.548,29.623 72.668,30.525 72.908,31.020 C73.148,31.516 73.562,31.763 74.151,31.763 C74.491,31.763 74.828,31.629 75.161,31.360 C75.494,31.092 75.854,30.622 76.241,29.950 C76.628,29.279 77.054,28.368 77.519,27.218 C77.983,26.068 78.525,24.612 79.144,22.849 L79.262,22.882 C79.552,21.827 79.843,20.665 80.133,19.374 C80.056,19.139 79.986,18.937 79.924,18.769 C79.862,18.602 79.808,18.446 79.762,18.303 C79.715,18.161 79.676,18.010 79.646,17.850 C79.614,17.691 79.599,17.510 79.599,17.309 C79.599,17.040 79.634,16.742 79.704,16.415 C79.773,16.087 79.874,15.781 80.006,15.496 C80.137,15.210 80.288,14.971 80.458,14.778 C80.629,14.585 80.807,14.488 80.993,14.488 C81.209,14.488 81.384,14.543 81.515,14.652 C81.647,14.761 81.751,14.900 81.829,15.068 C81.906,15.236 81.960,15.412 81.991,15.596 C82.022,15.781 82.038,15.958 82.038,16.125 C82.038,16.377 82.011,16.667 81.957,16.994 C81.902,17.321 81.840,17.640 81.771,17.951 C81.701,18.262 81.639,18.534 81.585,18.769 C81.530,19.005 81.504,19.156 81.504,19.223 C81.627,19.676 81.840,20.138 82.142,20.608 C82.444,21.078 82.789,21.556 83.176,22.043 C83.563,22.530 83.969,23.038 84.395,23.567 C84.821,24.095 85.208,24.654 85.557,25.241 C85.905,25.829 86.191,26.454 86.416,27.117 C86.640,27.781 86.753,28.481 86.753,29.220 C86.753,30.278 86.609,31.134 86.323,31.789 C86.036,32.443 85.653,32.947 85.173,33.299 C85.870,32.997 86.524,32.460 87.136,31.688 C87.748,30.916 88.313,30.030 88.832,29.031 C89.350,28.032 89.830,26.987 90.272,25.896 C90.341,25.725 90.401,25.567 90.468,25.400 C90.733,24.641 91.004,23.885 91.224,23.101 C91.533,21.993 91.843,20.750 92.153,19.374 C92.075,19.139 92.005,18.937 91.944,18.769 C91.882,18.602 91.828,18.446 91.781,18.303 C91.735,18.161 91.696,18.010 91.665,17.850 C91.634,17.691 91.619,17.510 91.619,17.309 C91.619,17.040 91.653,16.742 91.723,16.415 C91.793,16.087 91.893,15.781 92.025,15.496 C92.156,15.210 92.307,14.971 92.478,14.778 C92.648,14.585 92.826,14.488 93.012,14.488 C93.229,14.488 93.403,14.543 93.535,14.652 C93.666,14.761 93.771,14.900 93.848,15.068 C93.926,15.236 93.980,15.412 94.011,15.596 C94.042,15.781 94.057,15.958 94.057,16.125 C94.057,16.377 94.030,16.667 93.976,16.994 C93.922,17.321 93.860,17.640 93.790,17.951 C93.721,18.262 93.659,18.534 93.604,18.769 C93.550,19.005 93.523,19.156 93.523,19.223 C93.647,19.676 93.860,20.138 94.162,20.608 C94.464,21.078 94.808,21.556 95.195,22.043 C95.582,22.530 95.989,23.038 96.415,23.567 C96.841,24.095 97.228,24.654 97.576,25.241 C97.925,25.829 98.211,26.454 98.436,27.117 C98.660,27.781 98.772,28.481 98.772,29.220 C98.772,30.278 98.629,31.134 98.343,31.789 C98.056,32.443 97.673,32.947 97.193,33.299 C97.890,32.997 98.544,32.460 99.156,31.688 C99.767,30.916 100.332,30.030 100.851,29.031 C101.370,28.032 101.850,26.987 102.291,25.896 C102.488,25.409 102.671,24.943 102.848,24.487 C102.865,24.403 102.871,24.317 102.890,24.234 C103.084,23.378 103.355,22.568 103.703,21.804 C104.052,21.040 104.466,20.327 104.946,19.663 C105.426,19.000 105.945,18.425 106.502,17.938 L106.850,18.568 C106.494,18.920 106.154,19.357 105.828,19.877 C105.503,20.398 105.209,20.973 104.946,21.602 C104.682,22.232 104.473,22.895 104.319,23.592 C104.164,24.289 104.086,24.981 104.086,25.669 C104.086,27.029 104.245,28.171 104.563,29.094 C104.880,30.018 105.286,30.760 105.782,31.323 C106.277,31.885 106.835,32.288 107.454,32.531 C108.073,32.775 108.677,32.897 109.266,32.897 C110.133,32.897 110.965,32.553 111.763,31.864 C112.560,31.176 113.183,30.177 113.632,28.867 L113.447,28.867 C112.486,28.867 111.600,28.691 110.787,28.339 C109.974,27.986 109.270,27.495 108.674,26.865 C108.077,26.236 107.609,25.480 107.268,24.599 C106.928,23.718 106.757,22.748 106.757,21.690 C106.757,21.103 106.831,20.507 106.978,19.903 C107.125,19.298 107.353,18.757 107.663,18.278 C107.973,17.800 108.375,17.409 108.871,17.107 C109.366,16.805 109.955,16.654 110.636,16.654 C111.194,16.654 111.743,16.776 112.285,17.019 C112.827,17.263 113.315,17.678 113.749,18.266 C114.182,18.854 114.534,19.647 114.805,20.645 C115.076,21.644 115.212,22.908 115.212,24.435 C115.212,25.006 115.189,25.573 115.142,26.135 C115.096,26.698 115.010,27.247 114.887,27.785 C115.491,27.667 116.028,27.457 116.501,27.155 C116.973,26.853 117.391,26.488 117.755,26.060 C118.119,25.631 118.440,25.145 118.719,24.599 C118.816,24.410 118.894,24.190 118.985,23.992 C118.936,23.221 118.882,22.446 118.872,21.703 C118.856,20.637 118.848,19.693 118.848,18.870 C118.848,17.343 118.906,15.823 119.022,14.312 C119.139,12.801 119.316,11.357 119.557,9.981 C119.797,8.604 120.087,7.324 120.428,6.140 C120.768,4.957 121.167,3.933 121.624,3.068 C122.080,2.204 122.584,1.528 123.134,1.041 C123.683,0.554 124.283,0.311 124.934,0.311 C125.398,0.311 125.793,0.395 126.118,0.563 C126.443,0.731 126.706,0.957 126.908,1.242 C127.109,1.528 127.256,1.859 127.349,2.237 C127.442,2.615 127.489,3.014 127.489,3.433 C127.489,4.491 127.376,5.616 127.152,6.808 C126.927,8.000 126.633,9.209 126.269,10.434 C125.905,11.660 125.487,12.894 125.015,14.136 C124.542,15.378 124.066,16.570 123.586,17.712 C123.106,18.854 122.634,19.936 122.170,20.960 C121.705,21.984 121.295,22.899 120.939,23.705 C121.000,25.082 121.109,26.324 121.264,27.432 C121.418,28.540 121.612,29.484 121.844,30.265 C122.077,31.046 122.355,31.646 122.681,32.066 C123.006,32.485 123.377,32.695 123.796,32.695 C124.260,32.695 124.721,32.460 125.177,31.990 C125.634,31.520 126.095,30.857 126.559,30.001 C127.024,29.144 127.496,28.112 127.976,26.903 C128.456,25.694 128.944,24.343 129.440,22.849 L130.345,23.101 C129.974,24.259 129.556,25.480 129.091,26.765 C128.627,28.049 128.108,29.229 127.535,30.303 ZM113.946,21.149 C113.737,20.285 113.470,19.592 113.145,19.071 C112.820,18.551 112.436,18.182 111.995,17.963 C111.554,17.745 111.085,17.636 110.590,17.636 C110.172,17.636 109.784,17.733 109.428,17.926 C109.072,18.119 108.763,18.383 108.499,18.719 C108.236,19.055 108.027,19.458 107.872,19.928 C107.717,20.398 107.640,20.918 107.640,21.489 C107.640,22.480 107.795,23.369 108.105,24.158 C108.414,24.948 108.836,25.619 109.370,26.173 C109.905,26.727 110.528,27.151 111.240,27.445 C111.952,27.739 112.719,27.885 113.540,27.885 L113.981,27.885 C114.105,27.365 114.190,26.819 114.236,26.248 C114.283,25.678 114.306,25.057 114.306,24.385 C114.275,23.092 114.155,22.014 113.946,21.149 ZM122.077,18.832 C122.510,17.834 122.940,16.801 123.366,15.735 C123.792,14.669 124.198,13.590 124.585,12.499 C124.972,11.408 125.313,10.338 125.607,9.288 C125.901,8.239 126.137,7.240 126.316,6.291 C126.493,5.343 126.583,4.483 126.583,3.710 C126.583,3.458 126.563,3.190 126.525,2.904 C126.486,2.619 126.416,2.355 126.316,2.111 C126.215,1.868 126.072,1.667 125.886,1.507 C125.700,1.347 125.460,1.268 125.166,1.268 C124.577,1.268 124.016,1.683 123.482,2.514 C122.948,3.345 122.483,4.500 122.088,5.977 C121.694,7.454 121.380,9.213 121.148,11.252 C120.915,13.292 120.799,15.521 120.799,17.938 C120.799,18.576 120.799,19.202 120.799,19.814 C120.799,20.427 120.815,21.019 120.846,21.590 C121.233,20.750 121.643,19.831 122.077,18.832 ZM43.537,10.912 C43.212,10.912 42.906,10.858 42.620,10.749 C42.333,10.640 42.086,10.497 41.877,10.321 C41.668,10.144 41.505,9.935 41.389,9.691 C41.273,9.448 41.215,9.192 41.215,8.923 C41.215,8.352 41.420,7.891 41.830,7.538 C42.240,7.185 42.716,7.009 43.259,7.009 C43.645,7.009 43.994,7.072 44.304,7.198 C44.613,7.324 44.876,7.488 45.093,7.689 C45.310,7.891 45.473,8.113 45.581,8.356 C45.689,8.600 45.744,8.839 45.744,9.074 C45.744,9.662 45.535,10.115 45.117,10.434 C44.699,10.753 44.172,10.912 43.537,10.912 ZM44.292,8.608 C44.160,8.466 43.963,8.394 43.700,8.394 C43.220,8.394 42.980,8.587 42.980,8.973 C42.980,9.158 43.053,9.313 43.200,9.439 C43.347,9.565 43.545,9.628 43.793,9.628 C44.025,9.628 44.199,9.574 44.315,9.464 C44.431,9.355 44.490,9.225 44.490,9.074 C44.490,8.907 44.423,8.751 44.292,8.608 ZM35.986,10.875 C35.529,11.655 34.987,12.390 34.360,13.078 C33.733,13.767 33.056,14.367 32.328,14.879 C31.600,15.391 30.830,15.798 30.017,16.100 C29.204,16.402 28.387,16.553 27.567,16.553 C26.111,16.553 24.973,16.150 24.152,15.345 C23.331,14.539 22.921,13.464 22.921,12.121 C22.921,11.466 22.991,10.900 23.130,10.421 C23.270,9.943 23.428,9.536 23.606,9.200 C23.784,8.864 23.962,8.596 24.141,8.394 C24.319,8.193 24.446,8.025 24.524,7.891 L25.151,8.596 C25.135,8.613 25.058,8.688 24.919,8.822 C24.779,8.957 24.628,9.167 24.466,9.452 C24.303,9.738 24.156,10.103 24.025,10.547 C23.893,10.992 23.827,11.517 23.827,12.121 C23.827,12.574 23.900,13.007 24.048,13.418 C24.195,13.830 24.423,14.190 24.733,14.501 C25.043,14.812 25.433,15.059 25.906,15.244 C26.378,15.429 26.931,15.521 27.567,15.521 C28.697,15.521 29.800,15.231 30.876,14.652 C31.952,14.073 32.912,13.322 33.756,12.398 C34.600,11.475 35.278,10.447 35.789,9.313 C36.300,8.180 36.555,7.068 36.555,5.977 C36.555,4.617 36.156,3.597 35.359,2.917 C34.561,2.237 33.396,1.897 31.863,1.897 C30.145,1.897 28.496,2.233 26.916,2.904 C25.337,3.576 23.862,4.491 22.492,5.649 C21.121,6.808 19.875,8.151 18.752,9.678 C17.629,11.206 16.669,12.822 15.872,14.526 C15.074,16.230 14.455,17.976 14.014,19.764 C13.573,21.552 13.352,23.277 13.352,24.939 C13.352,26.551 13.561,27.910 13.979,29.018 C14.397,30.127 14.958,31.020 15.663,31.700 C16.367,32.380 17.184,32.871 18.113,33.174 C19.042,33.476 20.026,33.627 21.063,33.627 C21.899,33.627 22.766,33.484 23.665,33.199 C24.562,32.913 25.457,32.515 26.347,32.003 C27.237,31.491 28.101,30.882 28.937,30.177 C29.773,29.472 30.555,28.708 31.283,27.885 C31.314,25.955 31.465,24.297 31.736,22.912 C32.006,21.527 32.336,20.394 32.723,19.512 C33.110,18.631 33.524,17.985 33.965,17.573 C34.407,17.162 34.813,16.956 35.185,16.956 C35.293,16.956 35.417,16.977 35.556,17.019 C35.696,17.061 35.831,17.141 35.963,17.258 C36.094,17.376 36.203,17.540 36.288,17.749 C36.373,17.960 36.416,18.232 36.416,18.568 C36.416,19.206 36.323,19.890 36.137,20.620 C35.951,21.350 35.688,22.106 35.347,22.887 C35.007,23.667 34.593,24.460 34.105,25.266 C33.617,26.072 33.071,26.861 32.467,27.633 C32.529,28.624 32.622,29.539 32.746,30.378 C32.870,31.218 32.990,32.015 33.106,32.771 C33.222,33.526 33.327,34.261 33.420,34.974 C33.513,35.687 33.559,36.405 33.559,37.127 C33.559,38.470 33.400,39.805 33.083,41.131 C32.765,42.457 32.219,43.649 31.445,44.707 C30.671,45.765 29.630,46.621 28.321,47.276 C27.013,47.930 25.368,48.258 23.386,48.258 C22.518,48.258 21.760,48.111 21.110,47.817 C20.459,47.523 19.913,47.141 19.472,46.671 C19.031,46.201 18.702,45.668 18.485,45.072 C18.268,44.476 18.160,43.876 18.160,43.272 C18.160,42.684 18.226,42.109 18.357,41.547 C18.489,40.984 18.717,40.476 19.042,40.023 C19.368,39.570 19.797,39.192 20.332,38.890 C20.866,38.588 21.535,38.411 22.341,38.361 L22.434,39.343 C21.798,39.377 21.268,39.503 20.843,39.721 C20.416,39.939 20.072,40.229 19.809,40.590 C19.545,40.951 19.356,41.362 19.240,41.824 C19.124,42.285 19.066,42.768 19.066,43.272 C19.066,43.607 19.127,44.006 19.252,44.468 C19.375,44.929 19.596,45.366 19.913,45.777 C20.231,46.188 20.664,46.541 21.214,46.835 C21.764,47.128 22.472,47.276 23.339,47.276 C24.454,47.276 25.426,47.078 26.254,46.684 C27.082,46.289 27.795,45.748 28.391,45.060 C28.987,44.371 29.479,43.561 29.866,42.630 C30.253,41.698 30.559,40.694 30.783,39.620 C31.008,38.546 31.163,37.421 31.248,36.246 C31.333,35.071 31.376,33.904 31.376,32.745 C31.376,32.175 31.360,31.591 31.329,30.995 C31.298,30.400 31.283,29.774 31.283,29.119 C30.493,29.975 29.645,30.773 28.740,31.512 C27.834,32.250 26.877,32.897 25.871,33.451 C24.864,34.005 23.819,34.437 22.735,34.747 C21.651,35.058 20.552,35.213 19.437,35.213 C16.526,35.213 14.300,34.387 12.760,32.733 C11.219,31.080 10.449,28.523 10.449,25.065 C10.449,23.739 10.627,22.370 10.983,20.960 C11.339,19.550 11.834,18.152 12.469,16.767 C13.104,15.382 13.859,14.031 14.734,12.713 C15.609,11.395 16.569,10.144 17.614,8.961 C18.659,7.777 19.766,6.690 20.935,5.700 C22.104,4.709 23.305,3.857 24.536,3.144 C25.767,2.430 27.005,1.872 28.252,1.469 C29.498,1.066 30.717,0.865 31.910,0.865 C32.746,0.865 33.505,0.982 34.186,1.217 C34.867,1.453 35.452,1.788 35.940,2.225 C36.427,2.661 36.803,3.203 37.066,3.849 C37.329,4.495 37.461,5.221 37.461,6.027 C37.461,6.833 37.329,7.647 37.066,8.470 C36.803,9.292 36.443,10.094 35.986,10.875 ZM32.421,26.450 C33.350,25.208 34.097,23.906 34.662,22.547 C35.227,21.187 35.510,19.861 35.510,18.568 C35.510,18.182 35.401,17.989 35.185,17.989 C34.953,17.989 34.677,18.211 34.360,18.656 C34.043,19.101 33.741,19.685 33.454,20.406 C33.168,21.128 32.924,21.947 32.723,22.861 C32.521,23.777 32.421,24.696 32.421,25.619 L32.421,26.450 ZM15.083,50.057 C16.089,50.057 17.123,50.129 18.183,50.271 C19.244,50.414 20.274,50.645 21.272,50.964 C22.271,51.283 23.220,51.694 24.118,52.198 C25.016,52.701 25.798,53.314 26.464,54.036 C27.129,54.758 27.656,55.597 28.043,56.554 C28.430,57.511 28.624,58.594 28.624,59.803 C28.624,60.609 28.476,61.414 28.182,62.220 C27.888,63.026 27.470,63.815 26.928,64.587 C26.386,65.360 25.736,66.090 24.977,66.778 C24.218,67.467 23.374,68.096 22.445,68.667 C23.483,69.070 24.443,69.561 25.325,70.140 C26.208,70.719 26.967,71.399 27.602,72.180 C28.236,72.961 28.732,73.846 29.088,74.837 C29.444,75.827 29.622,76.935 29.622,78.161 C29.622,79.470 29.405,80.713 28.972,81.888 C28.538,83.063 27.930,84.146 27.149,85.136 C26.367,86.127 25.434,87.021 24.350,87.818 C23.266,88.615 22.074,89.291 20.773,89.845 C19.472,90.399 18.082,90.823 16.604,91.117 C15.125,91.410 13.604,91.558 12.040,91.558 C10.073,91.558 8.374,91.310 6.942,90.815 C5.509,90.319 4.325,89.660 3.388,88.838 C2.451,88.015 1.754,87.071 1.298,86.005 C0.841,84.939 0.613,83.835 0.613,82.693 C0.613,81.955 0.717,81.254 0.926,80.591 C1.135,79.928 1.429,79.315 1.809,78.752 C2.188,78.190 2.649,77.695 3.191,77.267 C3.733,76.839 4.344,76.499 5.026,76.247 L5.328,77.027 C4.739,77.263 4.248,77.615 3.853,78.085 C3.458,78.555 3.140,79.067 2.900,79.621 C2.660,80.175 2.490,80.738 2.389,81.308 C2.289,81.879 2.238,82.375 2.238,82.794 C2.238,83.298 2.300,83.844 2.424,84.431 C2.548,85.019 2.757,85.598 3.051,86.169 C3.345,86.740 3.737,87.293 4.224,87.831 C4.712,88.368 5.320,88.838 6.048,89.241 C6.775,89.644 7.635,89.967 8.626,90.210 C9.616,90.454 10.755,90.576 12.040,90.576 C13.031,90.576 14.092,90.462 15.222,90.236 C16.352,90.009 17.467,89.669 18.567,89.216 C19.666,88.762 20.719,88.200 21.725,87.528 C22.732,86.857 23.622,86.068 24.396,85.161 C25.171,84.255 25.786,83.239 26.243,82.114 C26.699,80.990 26.928,79.756 26.928,78.412 C26.928,77.204 26.773,76.130 26.464,75.189 C26.154,74.249 25.724,73.418 25.175,72.696 C24.625,71.974 23.986,71.358 23.258,70.845 C22.530,70.333 21.749,69.901 20.912,69.548 C19.766,70.086 18.563,70.510 17.301,70.820 C16.039,71.131 14.726,71.286 13.364,71.286 C13.333,71.874 13.309,72.482 13.294,73.112 C13.279,73.741 13.271,74.392 13.271,75.063 C13.271,76.675 13.348,78.362 13.503,80.125 C13.658,81.888 13.883,83.743 14.177,85.690 L13.271,85.841 C12.388,83.474 11.769,81.208 11.413,79.042 C11.057,76.876 10.879,74.828 10.879,72.898 C10.879,72.612 10.879,72.327 10.879,72.041 C10.879,71.756 10.894,71.471 10.925,71.185 C9.903,71.051 9.125,70.820 8.591,70.493 C8.057,70.165 7.790,69.758 7.790,69.271 C7.790,68.785 8.103,68.382 8.730,68.063 C9.357,67.744 10.220,67.517 11.320,67.383 C11.567,65.738 11.893,64.252 12.295,62.925 C12.698,61.599 13.089,60.470 13.468,59.538 C13.848,58.607 14.177,57.885 14.456,57.373 C14.734,56.861 14.874,56.588 14.874,56.554 L15.733,56.856 C15.671,57.058 15.559,57.423 15.396,57.952 C15.234,58.481 15.048,59.178 14.839,60.042 C14.630,60.907 14.417,61.939 14.200,63.139 C13.983,64.340 13.797,65.704 13.643,67.232 L13.689,67.232 C14.866,67.232 16.027,67.295 17.173,67.420 C18.319,67.546 19.426,67.752 20.494,68.037 C21.222,67.601 21.903,67.102 22.538,66.539 C23.173,65.977 23.727,65.355 24.199,64.676 C24.671,63.996 25.043,63.257 25.314,62.460 C25.585,61.662 25.720,60.810 25.720,59.904 C25.720,58.644 25.519,57.553 25.116,56.630 C24.714,55.707 24.199,54.913 23.572,54.250 C22.945,53.587 22.236,53.046 21.447,52.626 C20.657,52.206 19.879,51.879 19.112,51.644 C18.346,51.409 17.630,51.245 16.964,51.153 C16.298,51.061 15.764,51.014 15.361,51.014 C13.859,51.014 12.489,51.161 11.250,51.455 C10.011,51.749 8.900,52.118 7.917,52.563 C6.934,53.008 6.078,53.486 5.351,53.998 C4.623,54.511 4.019,54.989 3.539,55.434 C3.059,55.879 2.699,56.248 2.459,56.542 C2.219,56.836 2.091,56.991 2.076,57.008 L1.379,56.378 C1.410,56.328 1.561,56.135 1.832,55.799 C2.103,55.463 2.498,55.065 3.017,54.603 C3.535,54.141 4.174,53.642 4.933,53.104 C5.691,52.567 6.574,52.076 7.581,51.631 C8.587,51.187 9.713,50.813 10.960,50.511 C12.206,50.208 13.581,50.057 15.083,50.057 ZM9.299,68.868 C8.928,69.070 8.742,69.221 8.742,69.322 C8.742,69.439 8.912,69.582 9.253,69.750 C9.593,69.918 10.166,70.052 10.972,70.153 C11.002,69.851 11.033,69.548 11.064,69.246 C11.095,68.944 11.134,68.650 11.181,68.365 C10.298,68.499 9.671,68.667 9.299,68.868 ZM16.256,68.352 C15.365,68.243 14.510,68.188 13.689,68.188 L13.550,68.188 C13.519,68.525 13.495,68.864 13.480,69.208 C13.464,69.553 13.441,69.901 13.410,70.253 C14.231,70.220 15.118,70.090 16.070,69.863 C17.022,69.636 17.970,69.305 18.915,68.868 C18.032,68.634 17.146,68.462 16.256,68.352 Z"/>
</svg>