<svg xmlns="http://www.w3.org/2000/svg" width="267" height="128"><path d="M265.4 88C265.1 88.8 264.8 89.6 264.5 90.5 264.1 91.4 263.7 92.2 263.2 93.1 262.7 94 262.2 94.7 261.6 95.4 261 96.1 260.3 96.7 259.5 97.1 258.8 97.5 257.9 97.7 257 97.7 256.2 97.7 255.4 97.6 254.7 97.3 254 97 253.3 96.5 252.8 95.9 252.2 95.3 251.8 94.5 251.5 93.6 251.1 92.7 251 91.6 251 90.4 250.9 90.5 250.9 90.6 250.9 90.7 250.6 91.5 250.2 92.3 249.9 93 249.6 93.8 249.2 94.4 248.8 95 248.4 95.5 247.9 96 247.5 96.3 247 96.7 246.4 96.8 245.9 96.8 245.3 96.8 244.8 96.7 244.4 96.5 244 96.3 243.6 95.9 243.3 95.5 243.1 95.1 242.8 94.6 242.7 94.1 242.5 93.5 242.5 92.9 242.5 92.3 242 93.2 241.5 94 241.1 94.6 240.6 95.2 240.2 95.7 239.7 96.1 239.3 96.5 238.9 96.7 238.4 96.9 238 97 237.5 97.1 237 97.1 236.6 97.1 236.2 97 235.7 96.9 235.2 96.8 234.7 96.5 234.3 96 233.8 95.6 233.5 95 233.2 94.2 232.9 93.4 232.7 92.3 232.7 90.9 232.7 90.6 232.8 90.2 232.8 89.9 232.7 90 232.7 90.2 232.6 90.3 232.1 91.5 231.6 92.5 231.1 93.3 230.6 94.1 230 94.9 229.4 95.5 228.8 96.1 228.1 96.7 227.3 97.2 228.4 100 229.3 102.4 229.9 104.6 230.6 106.7 230.9 108.6 230.9 110.1 230.9 111.4 230.6 112.4 230 113.1 229.4 113.9 228.5 114.2 227.4 114.2 226.7 114.2 226.1 114 225.6 113.6 225.1 113.1 224.6 112.6 224.3 111.8 224 111 223.8 110.1 223.6 109.1 223.5 108 223.4 106.9 223.4 105.6 223.4 104.1 223.5 102.5 223.7 100.7 223.9 98.9 224.2 97 224.5 95.1 223.9 95.9 223.3 96.5 222.5 97 221.8 97.4 221.1 97.6 220.3 97.6 219.6 97.6 218.9 97.5 218.2 97.2 217.5 97 216.9 96.5 216.4 96 215.9 95.4 215.4 94.7 215.1 93.8 214.8 93 214.7 92 214.7 90.8 214.7 90.4 214.7 90.1 214.7 89.7 214.7 89.8 214.7 89.8 214.7 89.8 214.4 90.5 214.1 91.2 213.7 91.9 213.4 92.6 213 93.2 212.5 93.7 212.1 94.2 211.6 94.6 211 95 210.5 95.3 209.9 95.5 209.2 95.5 208.2 95.5 207.4 95 206.8 94.2 206.1 93.3 205.8 92 205.8 90.3 205.8 90 205.8 89.6 205.9 89.3 205.7 89.6 205.6 90 205.5 90.4 205.1 91.1 204.8 91.9 204.4 92.6 204.1 93.4 203.7 94 203.2 94.6 202.8 95.2 202.3 95.6 201.7 96 201.2 96.3 200.6 96.5 200 96.5 199.3 96.5 198.6 96.3 198 96 197.4 95.6 196.9 95 196.5 94.2 196 93.3 195.7 92.1 195.4 90.7 195.3 90 195.2 89.3 195.2 88.5 194.9 89.3 194.7 90 194.4 90.7 194.1 91.5 193.8 92.3 193.5 93 193.1 93.8 192.8 94.4 192.4 95 192 95.5 191.5 96 191 96.3 190.5 96.7 190 96.8 189.4 96.8 188.9 96.8 188.4 96.7 188 96.5 187.5 96.3 187.2 95.9 186.9 95.5 186.6 95.1 186.4 94.6 186.3 94.1 186.1 93.5 186 92.9 186 92.3 185.6 93.2 185.1 94 184.6 94.6 184.2 95.2 183.7 95.7 183.3 96.1 182.9 96.5 182.4 96.7 182 96.9 181.5 97 181.1 97.1 180.6 97.1 180.2 97.1 179.7 97 179.3 96.9 178.8 96.8 178.3 96.5 177.8 96 177.4 95.6 177 95 176.7 94.2 176.4 93.4 176.3 92.3 176.3 90.9 176.3 90.4 176.3 89.9 176.4 89.4 176.1 89.7 175.9 89.9 175.7 90.1 175.2 90.6 174.7 90.9 174.2 91.2 173.6 91.4 173.1 91.6 172.5 91.7 172.3 92.5 172 93.3 171.6 94 171.3 94.7 170.9 95.3 170.3 95.9 169.8 96.4 169.2 96.8 168.6 97.2 167.9 97.5 167.1 97.6 166.3 97.6 165.6 97.6 164.9 97.5 164.2 97.2 163.5 96.8 162.9 96.4 162.3 95.7 161.7 95.1 161.3 94.3 160.9 93.3 160.6 92.3 160.4 91.1 160.4 89.8 160.4 88.9 160.5 88 160.7 87.1 160.9 86.3 161.2 85.5 161.5 84.7 161.9 84 162.3 83.2 162.7 82.6 163.2 81.9 163.7 81.3 164.3 80.9L164.7 81.5C164.3 81.8 164 82.3 163.6 82.8 163.3 83.3 163 83.9 162.7 84.5 162.5 85.1 162.3 85.8 162.1 86.5 162 87.2 161.9 87.9 161.9 88.6 161.9 89.9 162 91.1 162.4 92 162.7 92.9 163.1 93.7 163.6 94.2 164.1 94.8 164.6 95.2 165.3 95.4 165.9 95.7 166.5 95.8 167.1 95.8 167.9 95.8 168.8 95.5 169.6 94.8 170.4 94.1 171 93.1 171.4 91.8L171.2 91.8C170.3 91.8 169.4 91.6 168.6 91.3 167.8 90.9 167.1 90.4 166.5 89.8 165.9 89.1 165.4 88.4 165.1 87.5 164.7 86.6 164.6 85.7 164.6 84.6 164.6 84 164.6 83.4 164.8 82.8 164.9 82.2 165.2 81.7 165.5 81.2 165.8 80.7 166.2 80.3 166.7 80 167.2 79.7 167.8 79.6 168.4 79.6 169 79.6 169.5 79.7 170.1 79.9 170.6 80.2 171.1 80.6 171.6 81.2 172 81.8 172.3 82.6 172.6 83.6 172.9 84.6 173 85.8 173 87.3 173 87.9 173 88.5 172.9 89 172.9 89.6 172.8 90.2 172.7 90.7 173.3 90.6 173.8 90.4 174.3 90.1 174.8 89.8 175.2 89.4 175.6 89 175.9 88.5 176.2 88.1 176.5 87.5 176.6 87.3 176.7 87.1 176.8 87 177 85.8 177.4 84.8 177.7 83.9 178.1 82.9 178.6 81.9 179.1 81.1L180 81.4C180 81.4 179.9 81.5 179.8 81.8 179.8 82.1 179.7 82.5 179.5 83 179.4 83.5 179.3 84 179.1 84.7 179 85.3 178.8 86 178.7 86.7 178.6 87.4 178.4 88.1 178.4 88.9 178.3 89.6 178.2 90.3 178.2 91 178.2 92.6 178.5 93.8 179 94.7 179.5 95.7 180.2 96.1 181 96.1 182 96.1 182.9 95.5 183.7 94.4 184.6 93.2 185.4 91.6 186.2 89.5 186.4 88.5 186.6 87.6 186.8 86.7 187 85.9 187.3 85.2 187.5 84.5 187.8 83.8 188 83.3 188.2 82.9 188.4 82.4 188.5 82.1 188.6 82L189.4 82.2C189.2 83.4 189 84.6 188.8 85.6 188.6 86.6 188.5 87.5 188.4 88.3 188.3 89.1 188.2 89.8 188.1 90.4 188.1 91.1 188 91.6 188 92.1 188 93.1 188.2 93.9 188.5 94.6 188.8 95.2 189.2 95.5 189.8 95.5 190.3 95.5 190.7 95.3 191.1 95 191.4 94.6 191.8 94.1 192.3 93.3 192.7 92.5 193.1 91.5 193.6 90.3 194 89.1 194.5 87.7 195.1 86.1 195.1 85.7 195.1 85.4 195.1 85 195.1 83.1 195.1 81.4 195.3 79.8 194 79.6 192.9 79.3 192 78.9 191.1 78.6 190.4 78.2 189.9 77.8L190.2 76.9C190.5 77 190.8 77.2 191.1 77.4 191.4 77.6 191.8 77.8 192.2 78 192.7 78.2 193.1 78.3 193.7 78.5 194.2 78.7 194.8 78.8 195.4 78.8 195.6 77.3 195.9 76 196.3 74.7 196.6 73.5 197 72.5 197.4 71.6 197.8 70.8 198.2 70.1 198.7 69.6 199.1 69.2 199.5 68.9 200 68.9 200.4 68.9 200.8 69.1 201 69.5 201.2 69.9 201.3 70.5 201.3 71.2 201.3 71.6 201.2 72.2 201.1 72.8 201 73.4 200.9 74 200.8 74.6 200.6 75.3 200.4 76 200.2 76.7 200 77.4 199.8 78.1 199.5 78.8 201.1 78.7 202.5 78.4 203.8 78 205.1 77.6 206.3 77.2 207.2 76.8L207.7 77.7C206.4 78.2 205.1 78.7 203.7 79.1 202.4 79.5 200.8 79.8 199.1 79.9 198.8 81 198.4 82 197.9 83 197.5 84 197.2 84.8 196.8 85.5 196.8 86.5 196.9 87.5 197 88.6 197.1 89.7 197.2 90.7 197.5 91.7 197.7 92.6 198.1 93.4 198.6 94.1 199 94.7 199.7 95 200.4 95 201.1 95 201.7 94.7 202.2 94.1 202.8 93.5 203.3 92.8 203.7 91.9 204.2 91 204.6 90 205 88.9 205.4 87.8 205.7 86.7 206.1 85.8L206.5 85.9C206.9 84.1 207.6 82.1 208.7 79.9L209.5 80.2C209.4 80.6 209.3 81.2 209.1 82 208.9 82.7 208.6 83.6 208.4 84.5 208.2 85.4 208 86.4 207.9 87.4 207.7 88.4 207.7 89.4 207.7 90.3 207.7 91.1 207.7 91.8 207.8 92.3 207.9 92.8 208.1 93.2 208.3 93.4 208.4 93.7 208.6 93.9 208.9 94 209.1 94.1 209.4 94.1 209.7 94.1 210.1 94.1 210.5 94 210.9 93.7 211.3 93.4 211.7 93 212.1 92.5 212.4 92 212.8 91.4 213.1 90.8 213.4 90.2 213.7 89.6 214 89 214.2 88.4 214.5 87.8 214.7 87.2 214.9 86.6 215 86.2 215.1 85.8L215.6 85.9C216.1 84.6 216.8 83.6 217.5 82.8 218.4 81.9 219.2 81.3 220.2 80.9 221.2 80.4 222.1 80.2 222.9 80.2 223.5 80.2 224 80.3 224.4 80.4 224.9 80.6 225.3 80.8 225.6 81 226 81.2 226.2 81.5 226.5 81.7 226.7 82 226.9 82.3 227.1 82.6 227.1 82.4 227.2 82.2 227.2 82 227.3 81.9 227.3 81.7 227.4 81.5L228.3 81.7C228.2 82.1 228.1 82.7 228 83.4 227.9 84.1 227.8 84.9 227.7 85.8 227.5 86.7 227.4 87.6 227.3 88.6 227.1 89.6 227 90.5 226.9 91.5 226.7 92.5 226.6 93.4 226.5 94.3 226.4 95.2 226.3 96 226.2 96.7 227 96.3 227.7 95.8 228.3 95.2 228.9 94.7 229.5 94 230 93.2 230.5 92.4 231.1 91.4 231.6 90.2 232.1 89 232.7 87.5 233.3 85.8L233.5 85.8C233.7 85.1 233.9 84.5 234.1 83.9 234.5 82.9 235 81.9 235.6 81.1L236.4 81.4C236.4 81.4 236.4 81.5 236.3 81.8 236.2 82.1 236.1 82.5 236 83 235.8 83.5 235.7 84 235.5 84.7 235.4 85.3 235.2 86 235.1 86.7 235 87.4 234.9 88.1 234.8 88.9 234.7 89.6 234.7 90.3 234.7 91 234.7 92.6 234.9 93.8 235.4 94.7 236 95.7 236.6 96.1 237.5 96.1 238.4 96.1 239.3 95.5 240.2 94.4 241 93.2 241.9 91.6 242.7 89.5 242.8 88.5 243 87.6 243.2 86.7 243.5 85.9 243.7 85.2 243.9 84.5 244.2 83.8 244.4 83.3 244.6 82.9 244.8 82.4 245 82.1 245 82L245.9 82.2C245.6 83.4 245.4 84.6 245.2 85.6 245 86.6 244.9 87.5 244.8 88.3 244.7 89.1 244.6 89.8 244.5 90.4 244.5 91.1 244.5 91.6 244.5 92.1 244.5 93.1 244.6 93.9 244.9 94.6 245.2 95.2 245.7 95.5 246.3 95.5 246.7 95.5 247.1 95.3 247.5 95 247.9 94.6 248.3 94.1 248.7 93.3 249.1 92.5 249.6 91.5 250 90.3 250.5 89.1 251 87.6 251.6 85.8L251.8 85.8C252.1 84.8 252.6 84 253.1 83.3 253.7 82.5 254.4 81.9 255.2 81.4 256 81 256.8 80.8 257.5 80.8 258.5 80.8 259.2 81.1 259.8 81.8 260.4 82.5 260.6 83.4 260.6 84.5 260.6 85.4 260.5 86.3 260.1 87.1 259.8 87.8 259.4 88.5 258.9 89 258.3 89.6 257.7 90 257 90.3 256.3 90.6 255.6 90.7 254.9 90.7 254.5 90.7 254.2 90.7 253.9 90.7 253.5 90.6 253.3 90.6 253 90.5 253.1 91.6 253.3 92.5 253.6 93.2 253.9 94 254.2 94.6 254.6 95.1 255 95.6 255.5 96 256 96.2 256.5 96.4 257.1 96.5 257.6 96.5 258.3 96.5 259 96.4 259.6 96 260.2 95.6 260.7 95.1 261.2 94.5 261.7 93.9 262.1 93.3 262.5 92.5 263 91.7 263.3 90.9 263.7 90.1 264 89.3 264.3 88.6 264.5 87.8 264.8 87 265 86.3 265.2 85.8L266.1 86C265.9 86.6 265.7 87.2 265.4 88ZM171.7 84.1C171.5 83.2 171.3 82.5 170.9 82 170.6 81.5 170.2 81.1 169.8 80.9 169.4 80.7 168.9 80.5 168.4 80.5 168 80.5 167.6 80.6 167.2 80.8 166.9 81 166.6 81.3 166.3 81.6 166 82 165.8 82.4 165.7 82.8 165.5 83.3 165.4 83.8 165.4 84.4 165.4 85.4 165.6 86.3 165.9 87.1 166.2 87.9 166.6 88.5 167.2 89.1 167.7 89.6 168.3 90.1 169 90.4 169.8 90.7 170.5 90.8 171.3 90.8L171.8 90.8C171.9 90.3 172 89.7 172 89.2 172.1 88.6 172.1 88 172.1 87.3 172.1 86 172 84.9 171.7 84.1ZM199.3 76.5C199.5 75.7 199.7 75 199.9 74.3 200 73.6 200.1 73 200.2 72.5 200.3 71.9 200.3 71.5 200.3 71.1 200.3 70.6 200.2 70.3 200.1 70.3 200 70.3 199.7 70.4 199.5 70.7 199.2 71 198.9 71.5 198.6 72.2 198.3 72.9 198 73.8 197.7 74.9 197.4 76 197.2 77.3 197 78.9L197.4 78.9 198.6 78.9C198.9 78.1 199.1 77.3 199.3 76.5ZM197.6 81.7C197.8 81.1 198 80.5 198.2 79.9L197.4 79.9 196.9 79.9C196.9 80.5 196.9 81 196.8 81.6 196.8 82.2 196.8 82.8 196.8 83.5L196.8 83.5C197.1 82.9 197.3 82.3 197.6 81.7ZM226.8 83.9C226.7 83.7 226.5 83.4 226.3 83.1 226.1 82.8 225.9 82.4 225.6 82.2 225.3 81.9 225 81.6 224.6 81.4 224.2 81.2 223.7 81.2 223.2 81.2 222.5 81.2 221.8 81.3 221.3 81.6 220.7 81.9 220.2 82.3 219.7 82.9 219.2 83.4 218.8 84 218.4 84.6 218.1 85.3 217.8 86 217.5 86.7 217.3 87.4 217.1 88.1 217 88.9 216.9 89.6 216.8 90.3 216.8 90.9 216.8 91.7 216.9 92.5 217.1 93.2 217.3 93.8 217.5 94.5 217.8 95 218.2 95.5 218.5 95.9 219 96.2 219.5 96.5 220 96.6 220.5 96.6 221.3 96.6 222.1 96.3 222.9 95.7 223.6 95 224.3 94.2 224.9 93 225.1 91.4 225.4 89.9 225.8 88.3 226.1 86.8 226.4 85.3 226.8 83.9ZM226.2 97C226.2 97.1 226.1 97.2 226.1 97.3 226.1 97.4 226.1 97.5 226.1 97.6 226 98.7 225.9 99.7 225.8 100.8 225.7 101.8 225.6 102.7 225.6 103.6 225.5 104.4 225.5 105.2 225.4 105.8 225.4 106.4 225.4 106.9 225.4 107.3 225.4 109.1 225.6 110.6 226 111.6 226.5 112.6 227.1 113.1 227.9 113.1 228.6 113.1 229.1 112.9 229.5 112.3 229.8 111.7 230 111 230 110 230 108.7 229.7 106.9 229 104.7 228.3 102.5 227.4 99.9 226.2 97ZM253.8 89.7C254.1 89.7 254.6 89.8 255.1 89.8 255.7 89.8 256.2 89.6 256.8 89.4 257.3 89.1 257.8 88.8 258.3 88.3 258.7 87.8 259.1 87.3 259.3 86.6 259.6 86 259.7 85.3 259.7 84.6 259.7 84.2 259.7 83.8 259.6 83.5 259.5 83.2 259.4 82.9 259.2 82.6 259 82.4 258.8 82.2 258.5 82 258.2 81.9 257.9 81.8 257.5 81.8 257 81.8 256.4 82 255.9 82.4 255.3 82.8 254.8 83.3 254.4 84 254 84.7 253.6 85.5 253.3 86.4 253.1 87.4 252.9 88.4 252.9 89.5 253.1 89.5 253.4 89.6 253.8 89.7ZM210.5 69.9C210.9 69.9 211.2 70 211.5 70.1 211.8 70.2 212.1 70.4 212.3 70.6 212.5 70.8 212.7 71 212.8 71.3 212.9 71.5 213 71.8 213 72 213 72.6 212.7 73 212.3 73.3 211.9 73.7 211.4 73.8 210.7 73.8 210.4 73.8 210.1 73.8 209.8 73.7 209.5 73.6 209.3 73.4 209.1 73.2 208.9 73.1 208.7 72.8 208.6 72.6 208.5 72.4 208.4 72.1 208.4 71.8 208.4 71.3 208.6 70.8 209 70.5 209.5 70.1 209.9 69.9 210.5 69.9ZM210.4 72.4C210.6 72.5 210.8 72.5 211 72.5 211.2 72.5 211.4 72.5 211.5 72.4 211.6 72.3 211.7 72.1 211.7 72 211.7 71.8 211.6 71.7 211.5 71.5 211.4 71.4 211.2 71.3 210.9 71.3 210.4 71.3 210.2 71.5 210.2 71.9 210.2 72.1 210.3 72.2 210.4 72.4ZM255.5 41.3C255 42.4 254.3 43.3 253.7 44 253 44.7 252.3 45 251.5 45 250.7 45 250.1 44.8 249.5 44.2 249 43.7 248.6 43 248.2 42.2 247.9 41.3 247.6 40.4 247.5 39.3 247.3 38.5 247.2 37.6 247.1 36.7 246.7 37.3 246.3 37.8 245.9 38.2 245.4 38.7 244.9 39 244.4 39.3 243.8 39.5 243.3 39.7 242.7 39.8 242.5 40.6 242.2 41.4 241.8 42.1 241.5 42.8 241.1 43.4 240.5 44 240 44.5 239.4 44.9 238.8 45.2 238.1 45.6 237.3 45.7 236.5 45.7 235.8 45.7 235.1 45.6 234.4 45.2 233.7 44.9 233.1 44.5 232.5 43.8 231.9 43.2 231.5 42.3 231.1 41.4 230.8 40.6 230.7 39.6 230.6 38.5 230.1 39.9 229.4 41.1 228.7 42.1 228 43.2 227.1 44.1 226.2 44.8 225.2 45.4 224.2 45.8 223 45.8 222.6 45.8 222.3 45.7 222 45.7 221.6 45.6 221.3 45.5 221 45.4 220.7 45.3 220.4 45.1 220.1 44.9 219.8 44.7 219.6 44.4 219.4 44.1L220.2 43.5C220.3 43.8 220.5 44 220.8 44.2 221.1 44.4 221.5 44.5 222 44.5 222.4 44.5 222.8 44.4 223.2 44.2 223.5 44 223.8 43.7 224.1 43.3 224.3 43 224.5 42.5 224.6 42.1 224.7 41.6 224.8 41.1 224.8 40.5 224.8 39.4 224.6 38.4 224.3 37.6 224 36.7 223.7 36 223.3 35.3 222.8 34.7 222.4 34.1 222 33.6 221.6 33 221.2 32.5 221 31.9 220.8 32.4 220.7 32.9 220.5 33.4 220.4 33.6 220.3 33.8 220.2 34.1L220.4 34.1C219.8 35.6 219.3 37 218.7 38.4 218.1 39.8 217.4 41 216.7 42.1 215.9 43.2 215.1 44.1 214.2 44.8 213.2 45.4 212.2 45.8 210.9 45.8 210.6 45.8 210.3 45.7 210 45.7 209.6 45.6 209.3 45.5 209 45.4 208.7 45.3 208.4 45.1 208.1 44.9 207.8 44.7 207.6 44.4 207.4 44.1L208.1 43.5C208.3 43.8 208.5 44 208.8 44.2 209.1 44.4 209.5 44.5 209.9 44.5 210.4 44.5 210.8 44.4 211.2 44.2 211.5 44 211.8 43.7 212 43.3 212.3 43 212.5 42.5 212.6 42.1 212.7 41.6 212.8 41.1 212.8 40.5 212.8 39.4 212.6 38.4 212.3 37.6 212 36.7 211.6 36 211.2 35.3 210.8 34.7 210.4 34.1 210 33.6 209.6 33 209.2 32.5 209 31.9 208.8 32.4 208.7 32.9 208.5 33.4 208.3 33.8 208.2 34.3 208 34.8 207.8 35.1 207.6 35.5 207.5 35.8 207.1 36.9 206.7 37.9 206.3 38.8 205.8 40 205.3 41.1 204.8 41.8 204.3 42.6 203.8 43.2 203.4 43.5 202.9 43.8 202.4 44 201.8 44 201.1 44 200.5 43.7 200 43.2 199.5 42.7 199.2 41.9 199.1 40.7 198.6 41.9 197.9 42.9 197.1 43.6 196.3 44.3 195.4 44.7 194.2 44.7 193.5 44.7 192.9 44.6 192.3 44.3 191.8 44 191.2 43.7 190.8 43.1 190.3 42.6 190 41.9 189.7 41.1 189.5 40.4 189.3 39.5 189.3 38.4 189.2 38.8 189.1 39.1 188.9 39.4 188.4 40.7 187.8 41.8 187.2 42.6 186.6 43.4 186 44 185.4 44.3 184.8 44.6 184.2 44.7 183.5 44.7 183 44.7 182.5 44.6 182.1 44.4 181.6 44.2 181.2 43.8 180.8 43.4 180.4 42.9 180 42.3 179.8 41.5 179.5 40.8 179.4 39.9 179.4 38.8 179.4 38.3 179.5 37.8 179.5 37.2 179.6 36.6 179.7 36.1 179.9 35.6 180 35 180.2 34.5 180.3 34 180.5 33.5 180.7 33.1 180.9 32.7 180.3 33 179.7 33.1 179.1 33.1 178.4 33.1 177.9 33 177.5 32.8 177.3 33.4 177.2 33.9 177 34.3 176.9 34.7 176.7 35.1 176.5 35.4 176.4 35.6 176.3 35.8 176.2 35.9 176 36.6 175.8 37.2 175.5 37.9 175.2 38.6 174.9 39.3 174.5 40 174.2 40.6 173.8 41.2 173.3 41.8 172.9 42.3 172.4 42.7 171.8 43.1 171.3 43.4 170.6 43.5 170 43.5 169 43.5 168.2 43.1 167.6 42.3 166.9 41.4 166.6 40.1 166.6 38.4 166.6 37.2 166.8 35.8 167.2 34 167.7 32.2 168.4 30.2 169.4 28L170.3 28.3C170.2 28.7 170.1 29.3 169.9 30 169.6 30.8 169.4 31.6 169.2 32.6 169 33.5 168.8 34.5 168.7 35.5 168.5 36.5 168.4 37.5 168.4 38.4 168.4 39.2 168.5 39.9 168.6 40.4 168.7 40.9 168.9 41.2 169 41.5 169.2 41.8 169.4 42 169.7 42.1 169.9 42.2 170.2 42.2 170.4 42.2 170.9 42.2 171.3 42.1 171.7 41.8 172.1 41.5 172.5 41.1 172.9 40.6 173.2 40.1 173.6 39.5 173.9 38.9 174.2 38.3 174.5 37.7 174.8 37.1 175 36.5 175.2 35.9 175.4 35.3 175.6 34.7 175.8 34.3 175.9 33.8L176.1 33.9C176.3 33.2 176.4 32.6 176.6 31.9 176.4 31.5 176.1 31.1 176 30.5 175.8 29.9 175.7 29.2 175.7 28.4 175.7 27.7 175.8 27.1 176 26.6 176.2 26.1 176.5 25.9 176.8 25.9 177 25.9 177.2 26 177.4 26.2 177.5 26.4 177.7 26.6 177.8 26.9 177.9 27.2 178 27.5 178 27.9 178.1 28.3 178.1 28.8 178.1 29.2 178.1 29.4 178.1 29.6 178.1 29.8 178.1 30.1 178 30.3 178 30.6 178 30.8 177.9 31 177.9 31.3 177.8 31.5 177.8 31.7 177.7 31.8 177.8 31.9 178 32 178.2 32 178.4 32.1 178.7 32.1 179 32.1 179.6 32.1 180.1 32 180.6 31.9 181 31.7 181.4 31.4 181.7 31.2 181.9 30.8 182.1 30.4 182.2 30.2 182.3 30 182.4 29.8 182.5 29.7 182.6 29.6 182.6 29.6 182.7 29.5 182.7 29.5 182.8 29.5 182.8 29.5 183 29.5 183.1 29.5 183.3 29.6 183.4 29.7 183.4 29.9 183.4 30.1 183.4 30.1 183.4 30.2 183.3 30.3 183.3 30.4 183.2 30.5 183.2 30.6 182.5 31.6 182 32.7 181.6 34 181.3 35.2 181.1 36.6 181.1 38.1 181.1 39.8 181.3 41 181.8 41.8 182.4 42.6 183.1 43 184.1 43 184.6 43 185.1 42.8 185.6 42.4 186.1 42.1 186.5 41.6 187 40.8 187.5 40.1 187.9 39.2 188.4 38 188.9 36.9 189.4 35.5 189.9 33.8L190.1 33.9C190.3 33.4 190.5 32.9 190.7 32.5 191.1 31.7 191.6 30.9 192.2 30.3 192.7 29.7 193.3 29.1 193.9 28.7 194.4 28.3 195 27.9 195.6 27.7 196.2 27.4 196.8 27.3 197.3 27.3 197.7 27.3 198.1 27.4 198.5 27.5 198.9 27.6 199.3 27.8 199.6 28.1 199.9 28.3 200.2 28.7 200.4 29.1 200.5 29.6 200.6 30.1 200.6 30.8 200.6 31.5 200.5 32.2 200.2 32.8 200 33.3 199.6 33.8 199.3 34.2 198.9 34.6 198.5 34.9 198.1 35.1 197.7 35.4 197.4 35.5 197.2 35.6L196.9 34.7C196.9 34.7 197.1 34.6 197.4 34.5 197.7 34.3 198 34.1 198.4 33.8 198.7 33.5 199 33.1 199.3 32.6 199.5 32.1 199.7 31.5 199.7 30.8 199.7 30 199.5 29.4 199.1 29 198.6 28.5 198.1 28.3 197.5 28.3 197 28.3 196.4 28.5 195.7 28.9 195.1 29.3 194.4 29.9 193.8 30.7 193.2 31.5 192.7 32.6 192.2 33.8 191.8 35.1 191.6 36.6 191.6 38.3 191.6 40.1 191.9 41.4 192.5 42.3 193 43.2 193.8 43.6 194.7 43.6 195.2 43.6 195.7 43.5 196.1 43.2 196.6 42.9 197 42.5 197.3 42 197.7 41.5 198 41 198.3 40.3 198.6 39.7 198.9 39 199.1 38.3 199.1 37.8 199.2 37.2 199.3 36.4 199.4 35.7 199.6 35 199.8 34.2L201.2 34.7C201.2 34.9 201.1 35.2 201 35.6 200.9 35.9 200.9 36.3 200.8 36.7 200.7 37.1 200.7 37.6 200.6 38 200.6 38.5 200.5 38.9 200.5 39.3 200.5 40.6 200.7 41.5 200.9 42 201.1 42.5 201.6 42.8 202.2 42.8 202.5 42.8 202.8 42.6 203.2 42.4 203.5 42.1 203.9 41.6 204.2 41 204.6 40.3 205.1 39.4 205.5 38.2 206 37.1 206.5 35.6 207.1 33.8L207.3 33.9C207.6 32.8 207.8 31.7 208.1 30.4 208.1 30.1 208 29.9 207.9 29.8 207.9 29.6 207.8 29.4 207.8 29.3 207.7 29.2 207.7 29 207.6 28.9 207.6 28.7 207.6 28.5 207.6 28.3 207.6 28 207.6 27.7 207.7 27.4 207.8 27.1 207.9 26.8 208 26.5 208.1 26.2 208.3 26 208.5 25.8 208.6 25.6 208.8 25.5 209 25.5 209.2 25.5 209.4 25.5 209.5 25.7 209.6 25.8 209.8 25.9 209.8 26.1 209.9 26.2 210 26.4 210 26.6 210 26.8 210 27 210 27.1 210 27.4 210 27.7 210 28 209.9 28.3 209.8 28.6 209.8 29 209.7 29.3 209.6 29.5 209.6 29.8 209.5 30 209.5 30.2 209.5 30.2 209.6 30.7 209.8 31.1 210.1 31.6 210.4 32.1 210.8 32.6 211.2 33 211.6 33.5 212 34 212.4 34.6 212.8 35.1 213.2 35.7 213.6 36.2 213.9 36.8 214.2 37.5 214.4 38.1 214.6 38.8 214.8 39.5 214.8 40.2 214.8 41.3 214.6 42.1 214.3 42.8 214 43.4 213.7 43.9 213.2 44.3 213.9 44 214.5 43.5 215.1 42.7 215.7 41.9 216.3 41 216.8 40 217.4 39 217.8 38 218.3 36.9 218.3 36.7 218.4 36.6 218.5 36.4 218.7 35.6 219 34.9 219.2 34.1 219.5 33 219.8 31.8 220.2 30.4 220.1 30.1 220 29.9 219.9 29.8 219.9 29.6 219.8 29.4 219.8 29.3 219.7 29.2 219.7 29 219.7 28.9 219.6 28.7 219.6 28.5 219.6 28.3 219.6 28 219.7 27.7 219.7 27.4 219.8 27.1 219.9 26.8 220 26.5 220.2 26.2 220.3 26 220.5 25.8 220.6 25.6 220.8 25.5 221 25.5 221.2 25.5 221.4 25.5 221.5 25.7 221.7 25.8 221.8 25.9 221.8 26.1 221.9 26.2 222 26.4 222 26.6 222 26.8 222.1 27 222.1 27.1 222.1 27.4 222 27.7 222 28 221.9 28.3 221.9 28.6 221.8 29 221.7 29.3 221.7 29.5 221.6 29.8 221.6 30 221.5 30.2 221.5 30.2 221.6 30.7 221.9 31.1 222.2 31.6 222.5 32.1 222.8 32.6 223.2 33 223.6 33.5 224 34 224.4 34.6 224.8 35.1 225.2 35.7 225.6 36.2 225.9 36.8 226.2 37.5 226.4 38.1 226.7 38.8 226.8 39.5 226.8 40.2 226.8 41.3 226.6 42.1 226.3 42.8 226.1 43.4 225.7 43.9 225.2 44.3 225.9 44 226.5 43.5 227.2 42.7 227.8 41.9 228.3 41 228.9 40 229.4 39 229.9 38 230.3 36.9 230.5 36.4 230.7 35.9 230.8 35.5 230.9 35.4 230.9 35.3 230.9 35.2 231.1 34.4 231.4 33.6 231.7 32.8 232.1 32 232.5 31.3 232.9 30.7 233.4 30 233.9 29.4 234.5 28.9L234.9 29.6C234.5 29.9 234.2 30.4 233.8 30.9 233.5 31.4 233.2 32 232.9 32.6 232.7 33.2 232.5 33.9 232.3 34.6 232.2 35.3 232.1 36 232.1 36.7 232.1 38 232.2 39.2 232.6 40.1 232.9 41 233.3 41.8 233.8 42.3 234.3 42.9 234.8 43.3 235.5 43.5 236.1 43.8 236.7 43.9 237.3 43.9 238.1 43.9 239 43.6 239.8 42.9 240.6 42.2 241.2 41.2 241.6 39.9L241.4 39.9C240.5 39.9 239.6 39.7 238.8 39.3 238 39 237.3 38.5 236.7 37.9 236.1 37.2 235.6 36.5 235.3 35.6 234.9 34.7 234.8 33.7 234.8 32.7 234.8 32.1 234.8 31.5 235 30.9 235.1 30.3 235.4 29.8 235.7 29.3 236 28.8 236.4 28.4 236.9 28.1 237.4 27.8 238 27.7 238.6 27.7 239.2 27.7 239.7 27.8 240.3 28 240.8 28.3 241.3 28.7 241.7 29.3 242.2 29.9 242.5 30.6 242.8 31.6 243.1 32.6 243.2 33.9 243.2 35.4 243.2 36 243.2 36.6 243.1 37.1 243.1 37.7 243 38.2 242.9 38.8 243.5 38.7 244 38.5 244.5 38.2 245 37.9 245.4 37.5 245.8 37.1 246.1 36.6 246.4 36.1 246.7 35.6 246.8 35.4 246.9 35.2 247 35 246.9 34.2 246.9 33.4 246.9 32.7 246.9 31.6 246.8 30.7 246.8 29.9 246.8 28.3 246.9 26.8 247 25.3 247.1 23.8 247.3 22.4 247.6 21 247.8 19.6 248.1 18.3 248.4 17.1 248.8 16 249.2 14.9 249.6 14.1 250.1 13.2 250.6 12.5 251.1 12 251.7 11.6 252.3 11.3 252.9 11.3 253.4 11.3 253.8 11.4 254.1 11.6 254.4 11.7 254.7 12 254.9 12.2 255.1 12.5 255.3 12.9 255.3 13.2 255.4 13.6 255.5 14 255.5 14.4 255.5 15.5 255.4 16.6 255.2 17.8 254.9 19 254.6 20.2 254.3 21.4 253.9 22.7 253.5 23.9 253 25.1 252.5 26.4 252.1 27.6 251.6 28.7 251.1 29.9 250.6 30.9 250.2 32 249.7 33 249.3 33.9 248.9 34.7 249 36.1 249.1 37.3 249.3 38.4 249.4 39.5 249.6 40.5 249.8 41.3 250.1 42 250.4 42.6 250.7 43.1 251 43.5 251.4 43.7 251.8 43.7 252.3 43.7 252.7 43.5 253.2 43 253.6 42.5 254.1 41.9 254.6 41 255 40.1 255.5 39.1 256 37.9 256.5 36.7 256.9 35.3 257.4 33.8L258.3 34.1C258 35.3 257.6 36.5 257.1 37.8 256.6 39 256.1 40.2 255.5 41.3ZM241.9 32.1C241.7 31.3 241.5 30.6 241.1 30.1 240.8 29.6 240.4 29.2 240 29 239.6 28.7 239.1 28.6 238.6 28.6 238.2 28.6 237.8 28.7 237.4 28.9 237.1 29.1 236.8 29.4 236.5 29.7 236.2 30.1 236 30.5 235.9 30.9 235.7 31.4 235.6 31.9 235.6 32.5 235.6 33.5 235.8 34.4 236.1 35.2 236.4 35.9 236.8 36.6 237.4 37.2 237.9 37.7 238.5 38.2 239.2 38.4 240 38.7 240.7 38.9 241.5 38.9L242 38.9C242.1 38.4 242.2 37.8 242.2 37.2 242.3 36.7 242.3 36.1 242.3 35.4 242.3 34.1 242.2 33 241.9 32.1ZM250.1 29.8C250.5 28.8 250.9 27.8 251.4 26.7 251.8 25.7 252.2 24.6 252.6 23.5 253 22.4 253.3 21.3 253.6 20.3 253.9 19.2 254.1 18.2 254.3 17.3 254.5 16.3 254.6 15.5 254.6 14.7 254.6 14.5 254.6 14.2 254.5 13.9 254.5 13.6 254.4 13.4 254.3 13.1 254.2 12.9 254.1 12.7 253.9 12.5 253.7 12.3 253.5 12.3 253.2 12.3 252.6 12.3 252 12.7 251.5 13.5 250.9 14.3 250.5 15.5 250.1 17 249.7 18.5 249.4 20.2 249.1 22.3 248.9 24.3 248.8 26.5 248.8 28.9 248.8 29.6 248.8 30.2 248.8 30.8 248.8 31.4 248.8 32 248.8 32.6 249.2 31.8 249.6 30.8 250.1 29.8ZM171.5 21.9C171.2 21.9 170.9 21.9 170.6 21.7 170.3 21.6 170.1 21.5 169.9 21.3 169.7 21.1 169.5 20.9 169.4 20.7 169.3 20.4 169.2 20.2 169.2 19.9 169.2 19.4 169.4 18.9 169.8 18.5 170.2 18.2 170.7 18 171.3 18 171.6 18 172 18.1 172.3 18.2 172.6 18.3 172.9 18.5 173.1 18.7 173.3 18.9 173.5 19.1 173.6 19.4 173.7 19.6 173.7 19.8 173.7 20.1 173.7 20.7 173.5 21.1 173.1 21.4 172.7 21.8 172.2 21.9 171.5 21.9ZM172.3 19.6C172.2 19.5 172 19.4 171.7 19.4 171.2 19.4 171 19.6 171 20 171 20.2 171.1 20.3 171.2 20.4 171.3 20.6 171.5 20.6 171.8 20.6 172 20.6 172.2 20.6 172.3 20.5 172.4 20.4 172.5 20.2 172.5 20.1 172.5 19.9 172.4 19.8 172.3 19.6ZM164 21.9C163.5 22.7 163 23.4 162.4 24.1 161.7 24.8 161.1 25.4 160.3 25.9 159.6 26.4 158.8 26.8 158 27.1 157.2 27.4 156.4 27.6 155.6 27.6 154.1 27.6 153 27.2 152.2 26.3 151.3 25.5 150.9 24.5 150.9 23.1 150.9 22.5 151 21.9 151.1 21.4 151.3 20.9 151.4 20.5 151.6 20.2 151.8 19.9 152 19.6 152.1 19.4 152.3 19.2 152.4 19 152.5 18.9L153.2 19.6C153.1 19.6 153.1 19.7 152.9 19.8 152.8 20 152.6 20.2 152.5 20.5 152.3 20.7 152.2 21.1 152 21.5 151.9 22 151.8 22.5 151.8 23.1 151.8 23.6 151.9 24 152 24.4 152.2 24.8 152.4 25.2 152.7 25.5 153 25.8 153.4 26.1 153.9 26.2 154.4 26.4 154.9 26.5 155.6 26.5 156.7 26.5 157.8 26.2 158.9 25.7 160 25.1 160.9 24.3 161.8 23.4 162.6 22.5 163.3 21.4 163.8 20.3 164.3 19.2 164.6 18.1 164.6 17 164.6 15.6 164.2 14.6 163.4 13.9 162.6 13.2 161.4 12.9 159.9 12.9 158.1 12.9 156.5 13.2 154.9 13.9 153.3 14.6 151.9 15.5 150.5 16.6 149.1 17.8 147.9 19.2 146.8 20.7 145.6 22.2 144.7 23.8 143.9 25.5 143.1 27.2 142.5 29 142 30.8 141.6 32.6 141.4 34.3 141.4 35.9 141.4 37.6 141.6 38.9 142 40 142.4 41.1 143 42 143.7 42.7 144.4 43.4 145.2 43.9 146.1 44.2 147 44.5 148 44.6 149.1 44.6 149.9 44.6 150.8 44.5 151.7 44.2 152.6 43.9 153.5 43.5 154.3 43 155.2 42.5 156.1 41.9 156.9 41.2 157.8 40.5 158.6 39.7 159.3 38.9 159.3 37 159.5 35.3 159.7 33.9 160 32.5 160.3 31.4 160.7 30.5 161.1 29.6 161.5 29 162 28.6 162.4 28.2 162.8 28 163.2 28 163.3 28 163.4 28 163.6 28 163.7 28.1 163.8 28.1 164 28.3 164.1 28.4 164.2 28.5 164.3 28.7 164.4 29 164.4 29.2 164.4 29.6 164.4 30.2 164.3 30.9 164.1 31.6 164 32.4 163.7 33.1 163.3 33.9 163 34.7 162.6 35.5 162.1 36.3 161.6 37.1 161.1 37.9 160.5 38.6 160.5 39.6 160.6 40.5 160.7 41.4 160.9 42.2 161 43 161.1 43.8 161.2 44.5 161.3 45.3 161.4 46 161.5 46.7 161.6 47.4 161.6 48.1 161.6 49.5 161.4 50.8 161.1 52.1 160.8 53.5 160.2 54.6 159.4 55.7 158.7 56.8 157.6 57.6 156.3 58.3 155 58.9 153.4 59.3 151.4 59.3 150.5 59.3 149.8 59.1 149.1 58.8 148.5 58.5 147.9 58.1 147.5 57.7 147 57.2 146.7 56.7 146.5 56.1 146.3 55.5 146.2 54.9 146.2 54.3 146.2 53.7 146.2 53.1 146.4 52.5 146.5 52 146.7 51.5 147 51 147.4 50.6 147.8 50.2 148.3 49.9 148.9 49.6 149.5 49.4 150.3 49.4L150.4 50.3C149.8 50.4 149.3 50.5 148.8 50.7 148.4 50.9 148.1 51.2 147.8 51.6 147.5 52 147.4 52.4 147.2 52.8 147.1 53.3 147.1 53.8 147.1 54.3 147.1 54.6 147.1 55 147.3 55.5 147.4 55.9 147.6 56.4 147.9 56.8 148.2 57.2 148.7 57.5 149.2 57.8 149.8 58.1 150.5 58.3 151.3 58.3 152.5 58.3 153.4 58.1 154.3 57.7 155.1 57.3 155.8 56.7 156.4 56.1 157 55.4 157.5 54.6 157.9 53.6 158.3 52.7 158.6 51.7 158.8 50.6 159 49.5 159.2 48.4 159.2 47.2 159.3 46.1 159.4 44.9 159.4 43.7 159.4 43.2 159.4 42.6 159.3 42 159.3 41.4 159.3 40.8 159.3 40.1 158.5 41 157.6 41.8 156.7 42.5 155.8 43.3 154.9 43.9 153.9 44.5 152.9 45 151.8 45.4 150.7 45.7 149.7 46.1 148.6 46.2 147.4 46.2 144.5 46.2 142.3 45.4 140.8 43.7 139.2 42.1 138.4 39.5 138.4 36.1 138.4 34.7 138.6 33.4 139 32 139.3 30.6 139.8 29.2 140.5 27.8 141.1 26.4 141.9 25 142.7 23.7 143.6 22.4 144.6 21.1 145.6 20 146.7 18.8 147.8 17.7 148.9 16.7 150.1 15.7 151.3 14.9 152.5 14.1 153.8 13.4 155 12.9 156.3 12.5 157.5 12.1 158.7 11.9 159.9 11.9 160.7 11.9 161.5 12 162.2 12.2 162.9 12.5 163.5 12.8 163.9 13.2 164.4 13.7 164.8 14.2 165.1 14.8 165.3 15.5 165.5 16.2 165.5 17 165.5 17.8 165.3 18.6 165.1 19.5 164.8 20.3 164.4 21.1 164 21.9ZM160.4 37.5C161.4 36.2 162.1 34.9 162.7 33.5 163.2 32.2 163.5 30.9 163.5 29.6 163.5 29.2 163.4 29 163.2 29 163 29 162.7 29.2 162.4 29.7 162 30.1 161.7 30.7 161.5 31.4 161.2 32.1 160.9 32.9 160.7 33.9 160.5 34.8 160.4 35.7 160.4 36.6L160.4 37.5ZM143.1 61.1C144.1 61.1 145.1 61.1 146.2 61.3 147.2 61.4 148.3 61.6 149.3 62 150.3 62.3 151.2 62.7 152.1 63.2 153 63.7 153.8 64.3 154.5 65 155.1 65.8 155.7 66.6 156 67.6 156.4 68.5 156.6 69.6 156.6 70.8 156.6 71.6 156.5 72.4 156.2 73.2 155.9 74 155.5 74.8 154.9 75.6 154.4 76.4 153.7 77.1 153 77.8 152.2 78.5 151.4 79.1 150.4 79.7 151.5 80.1 152.4 80.6 153.3 81.1 154.2 81.7 155 82.4 155.6 83.2 156.2 84 156.7 84.8 157.1 85.8 157.4 86.8 157.6 87.9 157.6 89.2 157.6 90.5 157.4 91.7 157 92.9 156.5 94.1 155.9 95.1 155.1 96.1 154.4 97.1 153.4 98 152.4 98.8 151.3 99.6 150.1 100.3 148.8 100.8 147.5 101.4 146.1 101.8 144.6 102.1 143.1 102.4 141.6 102.6 140 102.6 138.1 102.6 136.4 102.3 134.9 101.8 133.5 101.3 132.3 100.7 131.4 99.8 130.5 99 129.8 98.1 129.3 97 128.8 95.9 128.6 94.8 128.6 93.7 128.6 93 128.7 92.3 128.9 91.6 129.1 90.9 129.4 90.3 129.8 89.8 130.2 89.2 130.6 88.7 131.2 88.3 131.7 87.8 132.3 87.5 133 87.2L133.3 88C132.7 88.3 132.2 88.6 131.9 89.1 131.5 89.6 131.1 90.1 130.9 90.6 130.7 91.2 130.5 91.7 130.4 92.3 130.3 92.9 130.2 93.4 130.2 93.8 130.2 94.3 130.3 94.8 130.4 95.4 130.5 96 130.8 96.6 131.1 97.2 131.3 97.7 131.7 98.3 132.2 98.8 132.7 99.4 133.3 99.8 134 100.2 134.8 100.6 135.6 101 136.6 101.2 137.6 101.5 138.8 101.6 140 101.6 141 101.6 142.1 101.5 143.2 101.2 144.4 101 145.5 100.7 146.6 100.2 147.7 99.8 148.7 99.2 149.7 98.5 150.7 97.9 151.6 97.1 152.4 96.2 153.2 95.3 153.8 94.2 154.2 93.1 154.7 92 154.9 90.8 154.9 89.4 154.9 88.2 154.8 87.1 154.5 86.2 154.2 85.2 153.7 84.4 153.2 83.7 152.6 83 152 82.4 151.3 81.8 150.5 81.3 149.7 80.9 148.9 80.5 147.8 81.1 146.6 81.5 145.3 81.8 144 82.1 142.7 82.3 141.4 82.3 141.3 82.9 141.3 83.5 141.3 84.1 141.3 84.7 141.3 85.4 141.3 86.1 141.3 87.7 141.3 89.4 141.5 91.1 141.7 92.9 141.9 94.7 142.2 96.7L141.3 96.8C140.4 94.5 139.8 92.2 139.4 90 139.1 87.9 138.9 85.8 138.9 83.9 138.9 83.6 138.9 83.3 138.9 83 138.9 82.8 138.9 82.5 138.9 82.2 137.9 82.1 137.1 81.8 136.6 81.5 136.1 81.2 135.8 80.8 135.8 80.3 135.8 79.8 136.1 79.4 136.7 79.1 137.4 78.7 138.2 78.5 139.3 78.4 139.6 76.7 139.9 75.3 140.3 73.9 140.7 72.6 141.1 71.5 141.5 70.5 141.8 69.6 142.2 68.9 142.5 68.4 142.7 67.9 142.9 67.6 142.9 67.6L143.7 67.9C143.7 68.1 143.6 68.4 143.4 69 143.2 69.5 143 70.2 142.8 71 142.6 71.9 142.4 72.9 142.2 74.1 142 75.3 141.8 76.7 141.6 78.2L141.7 78.2C142.9 78.2 144 78.3 145.2 78.4 146.3 78.5 147.4 78.8 148.5 79 149.2 78.6 149.9 78.1 150.5 77.5 151.2 77 151.7 76.4 152.2 75.7 152.7 75 153 74.3 153.3 73.5 153.6 72.7 153.7 71.8 153.7 70.9 153.7 69.6 153.5 68.6 153.1 67.6 152.7 66.7 152.2 65.9 151.6 65.3 150.9 64.6 150.2 64 149.4 63.6 148.7 63.2 147.9 62.9 147.1 62.6 146.3 62.4 145.6 62.2 145 62.2 144.3 62.1 143.8 62 143.4 62 141.9 62 140.5 62.2 139.3 62.5 138 62.7 136.9 63.1 135.9 63.6 134.9 64 134.1 64.5 133.4 65 132.6 65.5 132 66 131.5 66.4 131.1 66.9 130.7 67.2 130.5 67.5 130.2 67.8 130.1 68 130.1 68L129.4 67.4C129.4 67.3 129.6 67.1 129.8 66.8 130.1 66.5 130.5 66.1 131 65.6 131.5 65.1 132.2 64.6 132.9 64.1 133.7 63.6 134.6 63.1 135.6 62.6 136.6 62.2 137.7 61.8 139 61.5 140.2 61.2 141.6 61.1 143.1 61.1ZM137.3 79.9C136.9 80.1 136.7 80.2 136.7 80.3 136.7 80.4 136.9 80.6 137.3 80.8 137.6 80.9 138.2 81.1 139 81.2 139 80.9 139 80.5 139.1 80.2 139.1 79.9 139.1 79.7 139.2 79.4 138.3 79.5 137.7 79.7 137.3 79.9ZM144.3 79.4C143.4 79.2 142.5 79.2 141.7 79.2L141.6 79.2C141.5 79.5 141.5 79.9 141.5 80.2 141.5 80.6 141.4 80.9 141.4 81.3 142.2 81.2 143.1 81.1 144.1 80.9 145 80.6 146 80.3 146.9 79.9 146 79.6 145.1 79.5 144.3 79.4Z" fill="rgb(255, 249, 95)"/><image width="125" height="128" href="./logo.png"/></svg>